<svg xmlns="http://www.w3.org/2000/svg" xmlns:xlink="http://www.w3.org/1999/xlink" viewBox="2571.364 -2663.007 298.134 123.258">
  <defs>
    <style>
      .cls-1, .cls-2 {
        fill: #fff;
      }

      .cls-2 {
        stroke: #004563;
        stroke-width: 4px;
      }

      .cls-3 {
        filter: url(#rectangle);
      }

      .cls-4 {
        filter: url(#path-9);
      }

      .cls-5 {
        filter: url(#path-8);
      }

      .cls-6 {
        filter: url(#path-7);
      }

      .cls-7 {
        filter: url(#path-6);
      }

      .cls-8 {
        filter: url(#path-5);
      }

      .cls-9 {
        filter: url(#path-4);
      }

      .cls-10 {
        filter: url(#path-3);
      }

      .cls-11 {
        filter: url(#path-2);
      }

      .cls-12 {
        filter: url(#path);
      }
    </style>
    <filter id="path" x="2571.364" y="-2662.866" width="71.212" height="107.022" filterUnits="userSpaceOnUse">
      <feOffset dy="3" input="SourceAlpha"/>
      <feGaussianBlur stdDeviation="3" result="blur"/>
      <feFlood flood-opacity="0.416"/>
      <feComposite operator="in" in2="blur"/>
      <feComposite in="SourceGraphic"/>
    </filter>
    <filter id="path-2" x="2633.855" y="-2662.761" width="53.516" height="107.097" filterUnits="userSpaceOnUse">
      <feOffset dy="3" input="SourceAlpha"/>
      <feGaussianBlur stdDeviation="3" result="blur-2"/>
      <feFlood flood-opacity="0.416"/>
      <feComposite operator="in" in2="blur-2"/>
      <feComposite in="SourceGraphic"/>
    </filter>
    <filter id="path-3" x="2786.18" y="-2580.424" width="25.742" height="25.744" filterUnits="userSpaceOnUse">
      <feOffset dy="3" input="SourceAlpha"/>
      <feGaussianBlur stdDeviation="3" result="blur-3"/>
      <feFlood flood-opacity="0.416"/>
      <feComposite operator="in" in2="blur-3"/>
      <feComposite in="SourceGraphic"/>
    </filter>
    <filter id="path-4" x="2796.196" y="-2594.31" width="28.999" height="39.568" filterUnits="userSpaceOnUse">
      <feOffset dy="3" input="SourceAlpha"/>
      <feGaussianBlur stdDeviation="3" result="blur-4"/>
      <feFlood flood-opacity="0.416"/>
      <feComposite operator="in" in2="blur-4"/>
      <feComposite in="SourceGraphic"/>
    </filter>
    <filter id="path-5" x="2809.1" y="-2594.31" width="33.73" height="39.568" filterUnits="userSpaceOnUse">
      <feOffset dy="3" input="SourceAlpha"/>
      <feGaussianBlur stdDeviation="3" result="blur-5"/>
      <feFlood flood-opacity="0.416"/>
      <feComposite operator="in" in2="blur-5"/>
      <feComposite in="SourceGraphic"/>
    </filter>
    <filter id="path-6" x="2827.349" y="-2594.31" width="41.288" height="39.199" filterUnits="userSpaceOnUse">
      <feOffset dy="3" input="SourceAlpha"/>
      <feGaussianBlur stdDeviation="3" result="blur-6"/>
      <feFlood flood-opacity="0.416"/>
      <feComposite operator="in" in2="blur-6"/>
      <feComposite in="SourceGraphic"/>
    </filter>
    <filter id="path-7" x="2681.107" y="-2662.945" width="63.839" height="82.457" filterUnits="userSpaceOnUse">
      <feOffset dy="3" input="SourceAlpha"/>
      <feGaussianBlur stdDeviation="3" result="blur-7"/>
      <feFlood flood-opacity="0.416"/>
      <feComposite operator="in" in2="blur-7"/>
      <feComposite in="SourceGraphic"/>
    </filter>
    <filter id="path-8" x="2731.616" y="-2663.007" width="63.839" height="101.628" filterUnits="userSpaceOnUse">
      <feOffset dy="3" input="SourceAlpha"/>
      <feGaussianBlur stdDeviation="3" result="blur-8"/>
      <feFlood flood-opacity="0.416"/>
      <feComposite operator="in" in2="blur-8"/>
      <feComposite in="SourceGraphic"/>
    </filter>
    <filter id="path-9" x="2784.89" y="-2661.716" width="61.381" height="81.29" filterUnits="userSpaceOnUse">
      <feOffset dy="3" input="SourceAlpha"/>
      <feGaussianBlur stdDeviation="3" result="blur-9"/>
      <feFlood flood-opacity="0.416"/>
      <feComposite operator="in" in2="blur-9"/>
      <feComposite in="SourceGraphic"/>
    </filter>
    <filter id="rectangle" x="2834.17" y="-2661.716" width="35.328" height="79.999" filterUnits="userSpaceOnUse">
      <feOffset dy="3" input="SourceAlpha"/>
      <feGaussianBlur stdDeviation="3" result="blur-10"/>
      <feFlood flood-opacity="0.416"/>
      <feComposite operator="in" in2="blur-10"/>
      <feComposite in="SourceGraphic"/>
    </filter>
  </defs>
  <g id="Group_1" data-name="Group 1" transform="translate(2184 -2791)">
    <g id="group-33" transform="translate(396.364 133.993)">
      <g class="cls-12" transform="matrix(1, 0, 0, 1, -2580.36, 2657.01)">
        <path id="path-10" data-name="path" class="cls-1" d="M0,87.8V1.647A1.391,1.391,0,0,1,1.413.234H13.334c3.072,0,39.879-4.486,39.879,45.163,0,25.377-9.77,43.75-37.482,43.75H1.413A1.306,1.306,0,0,1,0,87.8ZM35.639,45.336c0-10.937-3.257-27.958-16.529-29.187a1.42,1.42,0,0,0-1.536,1.413v54.5a1.443,1.443,0,0,0,1.475,1.413C32.014,72.864,35.639,56.027,35.639,45.336Z" transform="translate(2580.36 -2656.99)"/>
      </g>
      <g class="cls-11" transform="matrix(1, 0, 0, 1, -2580.36, 2657.01)">
        <path id="path-11" data-name="path" class="cls-1" d="M137.216,1.713v13.7a1.391,1.391,0,0,1-1.413,1.413H120.687a1.39,1.39,0,0,0-1.413,1.413V34.464a1.39,1.39,0,0,0,1.413,1.413h13.4a1.391,1.391,0,0,1,1.413,1.413v13.7a1.391,1.391,0,0,1-1.413,1.413h-13.4a1.39,1.39,0,0,0-1.413,1.413V87.984A1.39,1.39,0,0,1,117.86,89.4H103.113a1.39,1.39,0,0,1-1.413-1.413V1.713A1.391,1.391,0,0,1,103.113.3H135.8A1.391,1.391,0,0,1,137.216,1.713Z" transform="translate(2541.15 -2657.06)"/>
      </g>
      <path id="path-12" data-name="path" class="cls-2" d="M287.6,136" transform="translate(-110.88 -52.372)"/>
      <path id="path-13" data-name="path" class="cls-2" d="M355.4,136" transform="translate(-137.02 -52.372)"/>
      <g class="cls-10" transform="matrix(1, 0, 0, 1, -2580.36, 2657.01)">
        <path id="path-14" data-name="path" class="cls-1" d="M357.342,138.17a3.855,3.855,0,0,1-3.871,3.871,3.894,3.894,0,0,1-3.871-3.871,3.871,3.871,0,1,1,7.742,0Z" transform="translate(2445.58 -2708.72)"/>
      </g>
      <g class="cls-9" transform="matrix(1, 0, 0, 1, -2580.36, 2657.01)">
        <path id="path-15" data-name="path" class="cls-1" d="M376.776,132.53a7.7,7.7,0,0,1-3.318.737c-5.592,0-7.558-5.9-7.558-10.63,0-5.223,2.028-10.937,8.049-10.937a6.785,6.785,0,0,1,2.888.614v5.1a2.225,2.225,0,0,0-1.659-.676c-2.827,0-3.441,3.38-3.441,5.53,0,2.212.43,5.53,3.379,5.53a3.121,3.121,0,0,0,1.782-.615v5.346Z" transform="translate(2439.3 -2700.01)"/>
      </g>
      <g class="cls-8" transform="matrix(1, 0, 0, 1, -2580.36, 2657.01)">
        <path id="path-16" data-name="path" class="cls-1" d="M402.63,122.514c0,5.284-1.659,10.753-7.865,10.753S386.9,127.8,386.9,122.514s1.659-10.815,7.865-10.815S402.63,117.23,402.63,122.514Zm-10.016,0c0,1.167.062,5.592,2.089,5.592s2.089-4.363,2.089-5.592-.062-5.592-2.089-5.592C392.737,116.923,392.614,121.347,392.614,122.514Z" transform="translate(2431.2 -2700.01)"/>
      </g>
      <g class="cls-7" transform="matrix(1, 0, 0, 1, -2580.36, 2657.01)">
        <path id="path-17" data-name="path" class="cls-1" d="M422.376,115.448h.062c.983-2.028,2.642-3.748,5.1-3.748,2.151,0,3.257,1.659,3.564,3.5h.061a5.909,5.909,0,0,1,4.978-3.5c3.748,0,3.748,4.117,3.748,6.821v14.317h-5.776V121.593c0-1.045.307-4.117-1.413-4.117-1.352,0-1.536,1.413-1.536,2.335v13.027h-5.776V121.224c0-1.045.307-3.625-1.352-3.625-1.413,0-1.659,1.29-1.659,2.4v12.9H416.6V112.192h5.776Z" transform="translate(2419.75 -2700.01)"/>
      </g>
      <g class="cls-6" transform="matrix(1, 0, 0, 1, -2580.36, 2657.01)">
        <path id="path-18" data-name="path" class="cls-1" d="M207.111,56.223h-.246c-2.335,4.67-5.9,8.234-11.429,8.234-14.01,0-16.836-22.366-16.836-32.321C178.6,21.506,180.689,0,195.19,0c5.776,0,9.708,3.81,11.675,8.848h.246V1.229h17.328v62H207.111Zm1.229-24.271c0-3.441-.369-16.591-6.267-16.591-5.776,0-6.145,13.027-6.145,16.591,0,3.933.246,16.713,6.39,16.713C207.848,48.665,208.34,35.27,208.34,31.952Z" transform="translate(2511.51 -2656.95)"/>
      </g>
      <g class="cls-5" transform="matrix(1, 0, 0, 1, -2580.36, 2657.01)">
        <path id="path-19" data-name="path" class="cls-1" d="M306.639,83.528H289.311V56.185h-.246c-2.335,4.67-5.9,8.234-11.429,8.234-14.01,0-16.836-22.366-16.836-32.321,0-10.692,2.089-32.2,16.591-32.2,5.776,0,9.708,3.81,11.675,8.848h.246V1.19h17.328Zm-16.1-51.615c0-3.441-.369-16.591-6.268-16.591-5.776,0-6.145,13.027-6.145,16.591,0,3.933.245,16.713,6.39,16.713C290.048,48.627,290.54,35.232,290.54,31.914Z" transform="translate(2479.82 -2656.91)"/>
      </g>
      <g class="cls-4" transform="matrix(1, 0, 0, 1, -2580.36, 2657.01)">
        <path id="path-20" data-name="path" class="cls-1" d="M364.828,2V36.041c0,3.441-1.352,13.027,4.424,13.027,4.67,0,4.3-6.145,4.3-9.217L373.676,2h17.205V41.571c0,14.378-6.759,23.718-22.121,23.718C349.1,65.29,347.5,50.543,347.5,39.236V2Z" transform="translate(2446.39 -2657.72)"/>
      </g>
      <g class="cls-3" transform="matrix(1, 0, 0, 1, -2580.36, 2657.01)">
        <rect id="rectangle-2" data-name="rectangle" class="cls-1" width="17.328" height="61.999" transform="translate(2843.17 -2655.72)"/>
      </g>
    </g>
    <path id="group" class="cls-1" d="M-125.7-13.73l-.3,2.441a6.341,6.341,0,0,0-4.678-1.992,4.874,4.874,0,0,0-3.867,1.7,6.428,6.428,0,0,0-1.484,4.4,5.359,5.359,0,0,0,1.426,3.965,5.415,5.415,0,0,0,4,1.416A5.9,5.9,0,0,0-126.8-3.125l-.322,2.646A11.2,11.2,0,0,1-131,.293a7,7,0,0,1-5.283-2.08,7.54,7.54,0,0,1-2-5.488,8.219,8.219,0,0,1,2.129-5.8,7.018,7.018,0,0,1,5.371-2.3A9.226,9.226,0,0,1-125.7-13.73ZM-114.766-9.2-115.9,0h-2.158l.127-1A4.338,4.338,0,0,1-120.8.215a3.881,3.881,0,0,1-2.979-1.24,4.532,4.532,0,0,1-1.152-3.213,5.343,5.343,0,0,1,1.318-3.73,4.448,4.448,0,0,1,3.428-1.455,3.964,3.964,0,0,1,1.68.322,4.692,4.692,0,0,1,1.436,1.113l.146-1.211Zm-2.627,4.336a2.807,2.807,0,0,0-.7-1.982,2.345,2.345,0,0,0-1.816-.771,2.581,2.581,0,0,0-2.031.947,3.477,3.477,0,0,0-.82,2.344,2.878,2.878,0,0,0,.684,1.982,2.242,2.242,0,0,0,1.758.771,2.684,2.684,0,0,0,2.061-.967A3.4,3.4,0,0,0-117.393-4.863Zm11.123-3.32-1.221,1.221a2.492,2.492,0,0,0-1.592-.771,1.229,1.229,0,0,0-.825.278.869.869,0,0,0-.327.688.916.916,0,0,0,.273.674,5.366,5.366,0,0,0,1.143.762,5.282,5.282,0,0,1,1.66,1.27,2.3,2.3,0,0,1,.449,1.475,2.647,2.647,0,0,1-.908,2.1,3.618,3.618,0,0,1-2.412.781,4,4,0,0,1-3.35-1.826l1.416-.986a2.444,2.444,0,0,0,1.855,1.045,1.313,1.313,0,0,0,.894-.293.962.962,0,0,0,.337-.762.85.85,0,0,0-.283-.664,3.986,3.986,0,0,0-.479-.352q-.342-.225-.928-.537A4.47,4.47,0,0,1-112-5.205a2.4,2.4,0,0,1-.4-1.406,2.657,2.657,0,0,1,.918-2.07,3.371,3.371,0,0,1,2.334-.82A4.013,4.013,0,0,1-106.27-8.184ZM-94.648-9.2-95.781,0h-2.158l.127-1A4.338,4.338,0,0,1-100.684.215a3.881,3.881,0,0,1-2.979-1.24,4.532,4.532,0,0,1-1.152-3.213,5.343,5.343,0,0,1,1.318-3.73,4.448,4.448,0,0,1,3.428-1.455,3.964,3.964,0,0,1,1.68.322,4.692,4.692,0,0,1,1.436,1.113l.146-1.211Zm-2.627,4.336a2.807,2.807,0,0,0-.7-1.982,2.345,2.345,0,0,0-1.816-.771,2.581,2.581,0,0,0-2.031.947,3.477,3.477,0,0,0-.82,2.344,2.878,2.878,0,0,0,.684,1.982,2.242,2.242,0,0,0,1.758.771,2.684,2.684,0,0,0,2.061-.967A3.4,3.4,0,0,0-97.275-4.863Zm7.666,2.08-3.428,5.742-1.328-.723,3.086-5.947ZM-72.49-8.311l-.273,2.2a5.078,5.078,0,0,0-1.27-1.221A2.659,2.659,0,0,0-75.439-7.7a2.561,2.561,0,0,0-2.021.908,3.425,3.425,0,0,0-.791,2.334,3.021,3.021,0,0,0,.742,2.139,2.53,2.53,0,0,0,1.943.811A3.808,3.808,0,0,0-73.2-2.49l-.283,2.275a6.331,6.331,0,0,1-2.383.508A4.365,4.365,0,0,1-79.16-1.025a4.743,4.743,0,0,1-1.26-3.418,5.06,5.06,0,0,1,1.357-3.6,4.473,4.473,0,0,1,3.4-1.455A5.062,5.062,0,0,1-72.49-8.311Zm11.4,3.623a4.767,4.767,0,0,1-1.465,3.545A4.917,4.917,0,0,1-66.152.293,5.06,5.06,0,0,1-69.8-1.064,4.586,4.586,0,0,1-71.23-4.521a4.722,4.722,0,0,1,1.475-3.555A5.145,5.145,0,0,1-66.045-9.5,4.88,4.88,0,0,1-62.48-8.154,4.583,4.583,0,0,1-61.094-4.687Zm-2.178-.107a2.837,2.837,0,0,0-.771-2.1,2.68,2.68,0,0,0-2.021-.8,2.846,2.846,0,0,0-2.148.889,3.154,3.154,0,0,0-.85,2.256,3.031,3.031,0,0,0,.8,2.2,2.717,2.717,0,0,0,2.07.85,2.666,2.666,0,0,0,2.09-.928A3.389,3.389,0,0,0-63.271-4.795Zm7.412-4.4-.1.859a3.473,3.473,0,0,1,2.529-1.094,2.348,2.348,0,0,1,1.338.322,2.541,2.541,0,0,1,.84,1.143A4.021,4.021,0,0,1-48.3-9.424q2.734,0,2.734,2.51,0,.254-.044.713t-.122,1.133L-46.357,0h-2.158l.664-5.322a10.348,10.348,0,0,0,.088-1.094,1.066,1.066,0,0,0-1.211-1.2,2.215,2.215,0,0,0-.83.142,1.507,1.507,0,0,0-.6.439,2.394,2.394,0,0,0-.41.771,6.024,6.024,0,0,0-.249,1.128L-51.689,0h-2.158l.674-5.459q.088-.742.088-1.016,0-1.143-1.24-1.143-1.8,0-2.1,2.49L-57.061,0h-2.158l1.133-9.2Zm16.475-4.375a1.108,1.108,0,0,1-.342.811,1.119,1.119,0,0,1-.82.342,1.135,1.135,0,0,1-.83-.352,1.218,1.218,0,0,1-.342-.85,1.1,1.1,0,0,1,.332-.811,1.108,1.108,0,0,1,.811-.342,1.12,1.12,0,0,1,.83.361A1.131,1.131,0,0,1-39.385-13.574ZM-40.059-9.2-41.191,0H-43.35l1.133-9.2Zm13.174-7.295L-28.916,0h-2.148l.117-.986a5.571,5.571,0,0,1-1.387.967A3.8,3.8,0,0,1-33.76.215a4.2,4.2,0,0,1-3.164-1.279,4.612,4.612,0,0,1-1.23-3.32,5.059,5.059,0,0,1,1.348-3.6,4.452,4.452,0,0,1,3.389-1.436,3.861,3.861,0,0,1,1.758.361A5.566,5.566,0,0,1-30.107-7.8l1.064-8.691ZM-30.439-5a2.562,2.562,0,0,0-.723-1.895,2.562,2.562,0,0,0-1.895-.723,2.671,2.671,0,0,0-2.1.947,3.5,3.5,0,0,0-.83,2.393,2.715,2.715,0,0,0,.713,1.963,2.523,2.523,0,0,0,1.895.732,2.634,2.634,0,0,0,2.08-1A3.534,3.534,0,0,0-30.439-5Zm14.863-4.2L-16.709,0h-2.158l.127-1A4.338,4.338,0,0,1-21.611.215a3.881,3.881,0,0,1-2.979-1.24,4.532,4.532,0,0,1-1.152-3.213,5.343,5.343,0,0,1,1.318-3.73A4.448,4.448,0,0,1-21-9.424a3.964,3.964,0,0,1,1.68.322,4.692,4.692,0,0,1,1.436,1.113l.146-1.211ZM-18.2-4.863a2.807,2.807,0,0,0-.7-1.982,2.345,2.345,0,0,0-1.816-.771,2.581,2.581,0,0,0-2.031.947,3.477,3.477,0,0,0-.82,2.344,2.878,2.878,0,0,0,.684,1.982,2.242,2.242,0,0,0,1.758.771,2.684,2.684,0,0,0,2.061-.967A3.4,3.4,0,0,0-18.2-4.863ZM-5.312-3.828a2.181,2.181,0,0,0,.7,1.67A2.582,2.582,0,0,0-2.793-1.5,2.684,2.684,0,0,0-.469-2.637l1.611.889A5.136,5.136,0,0,1-.586-.166,4.91,4.91,0,0,1-2.832.293,4.626,4.626,0,0,1-6.24-.967,4.534,4.534,0,0,1-7.51-4.336a5.179,5.179,0,0,1,1.4-3.691A4.606,4.606,0,0,1-2.607-9.5,4.106,4.106,0,0,1,.625-8.174a5.164,5.164,0,0,1,1.2,3.584q0,.234-.029.762ZM-.361-5.566A2.2,2.2,0,0,0-2.715-7.7,2.458,2.458,0,0,0-5.2-5.566ZM13.164-9.2l-.1.791a3.239,3.239,0,0,1,2.207-1.035,2.611,2.611,0,0,1,1.777.713L15.674-6.953a1.844,1.844,0,0,0-1.191-.508,1.555,1.555,0,0,0-.723.161,1.457,1.457,0,0,0-.542.508,3.137,3.137,0,0,0-.381.894A8.717,8.717,0,0,0,12.6-4.59L12.031,0H9.873l1.133-9.2ZM27.539-4.687a4.767,4.767,0,0,1-1.465,3.545A4.917,4.917,0,0,1,22.48.293a5.06,5.06,0,0,1-3.652-1.357A4.586,4.586,0,0,1,17.4-4.521a4.722,4.722,0,0,1,1.475-3.555A5.145,5.145,0,0,1,22.588-9.5a4.88,4.88,0,0,1,3.564,1.348A4.583,4.583,0,0,1,27.539-4.687Zm-2.178-.107a2.837,2.837,0,0,0-.771-2.1,2.68,2.68,0,0,0-2.021-.8,2.846,2.846,0,0,0-2.148.889,3.154,3.154,0,0,0-.85,2.256,3.031,3.031,0,0,0,.8,2.2,2.717,2.717,0,0,0,2.07.85,2.666,2.666,0,0,0,2.09-.928A3.389,3.389,0,0,0,25.361-4.795ZM38.467-9.2l-.654,5.352a10.836,10.836,0,0,1-.2,1.191,5.9,5.9,0,0,1-.254.85,2.914,2.914,0,0,1-.918,1.162,4.53,4.53,0,0,1-2.881.859A4.034,4.034,0,0,1,30.85-.654a2.955,2.955,0,0,1-1.016-2.354q0-.225.024-.527t.073-.693L30.537-9.2H32.7l-.635,5.166q-.039.332-.059.581t-.02.415q0,1.455,1.709,1.455a1.771,1.771,0,0,0,1.367-.479,3.059,3.059,0,0,0,.586-1.68L36.318-9.2Zm5.176,0-.117.967a4.474,4.474,0,0,1,2.939-1.191,4.049,4.049,0,0,1,3.057,1.279,4.5,4.5,0,0,1,1.221,3.232,5.129,5.129,0,0,1-1.4,3.652A4.539,4.539,0,0,1,45.9.215,3.913,3.913,0,0,1,44.17-.117a5.045,5.045,0,0,1-1.494-1.2l-.811,6.582H39.707L41.484-9.2Zm4.941,4.375a2.879,2.879,0,0,0-.7-2,2.3,2.3,0,0,0-1.8-.791A2.848,2.848,0,0,0,43.9-6.66a3.351,3.351,0,0,0-.879,2.354,2.653,2.653,0,0,0,.742,1.963,2.555,2.555,0,0,0,1.914.762,2.671,2.671,0,0,0,2.07-.937A3.375,3.375,0,0,0,48.584-4.824ZM62.764-9.2,61.631,0H59.473L59.6-1A4.338,4.338,0,0,1,56.729.215a3.881,3.881,0,0,1-2.979-1.24A4.532,4.532,0,0,1,52.6-4.238a5.343,5.343,0,0,1,1.318-3.73,4.448,4.448,0,0,1,3.428-1.455,3.964,3.964,0,0,1,1.68.322,4.692,4.692,0,0,1,1.436,1.113L60.605-9.2ZM60.137-4.863a2.807,2.807,0,0,0-.7-1.982,2.345,2.345,0,0,0-1.816-.771,2.581,2.581,0,0,0-2.031.947,3.477,3.477,0,0,0-.82,2.344,2.878,2.878,0,0,0,.684,1.982,2.242,2.242,0,0,0,1.758.771,2.684,2.684,0,0,0,2.061-.967A3.4,3.4,0,0,0,60.137-4.863ZM75-16.494,72.979,0H70.82l2.031-16.494ZM86.152-9.2,85.02,0H82.861l.127-1A4.338,4.338,0,0,1,80.117.215a3.881,3.881,0,0,1-2.979-1.24,4.532,4.532,0,0,1-1.152-3.213A5.343,5.343,0,0,1,77.3-7.969a4.448,4.448,0,0,1,3.428-1.455,3.964,3.964,0,0,1,1.68.322,4.692,4.692,0,0,1,1.436,1.113L83.994-9.2ZM83.525-4.863a2.807,2.807,0,0,0-.7-1.982,2.345,2.345,0,0,0-1.816-.771,2.581,2.581,0,0,0-2.031.947,3.477,3.477,0,0,0-.82,2.344,2.878,2.878,0,0,0,.684,1.982,2.242,2.242,0,0,0,1.758.771,2.684,2.684,0,0,0,2.061-.967A3.4,3.4,0,0,0,83.525-4.863ZM97.451-9.2,91.123,1.191,87.852-9.2H90.1L91.68-3.32,94.98-9.2Zm10.488,0L106.807,0h-2.158l.127-1A4.338,4.338,0,0,1,101.9.215a3.881,3.881,0,0,1-2.979-1.24,4.532,4.532,0,0,1-1.152-3.213,5.343,5.343,0,0,1,1.318-3.73,4.448,4.448,0,0,1,3.428-1.455,3.964,3.964,0,0,1,1.68.322,4.692,4.692,0,0,1,1.436,1.113l.146-1.211Zm-2.627,4.336a2.807,2.807,0,0,0-.7-1.982,2.345,2.345,0,0,0-1.816-.771,2.581,2.581,0,0,0-2.031.947,3.477,3.477,0,0,0-.82,2.344,2.878,2.878,0,0,0,.684,1.982,2.242,2.242,0,0,0,1.758.771,2.684,2.684,0,0,0,2.061-.967A3.4,3.4,0,0,0,105.313-4.863Zm15.8-11.631L119.082,0h-2.148l.117-.986a5.571,5.571,0,0,1-1.387.967,3.8,3.8,0,0,1-1.426.234,4.2,4.2,0,0,1-3.164-1.279,4.612,4.612,0,0,1-1.23-3.32,5.059,5.059,0,0,1,1.348-3.6,4.452,4.452,0,0,1,3.389-1.436,3.861,3.861,0,0,1,1.758.361,5.566,5.566,0,0,1,1.553,1.26l1.064-8.691ZM117.559-5a2.562,2.562,0,0,0-.723-1.895,2.562,2.562,0,0,0-1.895-.723,2.671,2.671,0,0,0-2.1.947,3.5,3.5,0,0,0-.83,2.393,2.715,2.715,0,0,0,.713,1.963,2.523,2.523,0,0,0,1.895.732,2.634,2.634,0,0,0,2.08-1A3.534,3.534,0,0,0,117.559-5Zm14.863-4.2L131.289,0h-2.158l.127-1A4.338,4.338,0,0,1,126.387.215a3.881,3.881,0,0,1-2.979-1.24,4.532,4.532,0,0,1-1.152-3.213,5.343,5.343,0,0,1,1.318-3.73A4.448,4.448,0,0,1,127-9.424a3.964,3.964,0,0,1,1.68.322,4.692,4.692,0,0,1,1.436,1.113l.146-1.211Zm-2.627,4.336a2.807,2.807,0,0,0-.7-1.982,2.345,2.345,0,0,0-1.816-.771,2.581,2.581,0,0,0-2.031.947,3.477,3.477,0,0,0-.82,2.344,2.878,2.878,0,0,0,.684,1.982,2.242,2.242,0,0,0,1.758.771,2.684,2.684,0,0,0,2.061-.967A3.4,3.4,0,0,0,129.795-4.863Zm7.549,3.8a1.2,1.2,0,0,1-.4.9,1.305,1.305,0,0,1-.928.381,1.236,1.236,0,0,1-.918-.391,1.319,1.319,0,0,1-.381-.957,1.284,1.284,0,0,1,.352-.918,1.212,1.212,0,0,1,.889-.371,1.329,1.329,0,0,1,.977.4A1.291,1.291,0,0,1,137.344-1.064Z" transform="translate(535 245.987)"/>
  </g>
</svg>
