<svg xmlns="http://www.w3.org/2000/svg" viewBox="3064.891 -148.495 157.219 50.091">
  <defs>
    <style>
      .cls-1 {
        fill: #004562;
      }

      .cls-2 {
        fill: none;
        stroke: #004562;
        stroke-width: 4px;
      }

      .cls-3 {
        fill: #1aa1c0;
      }
    </style>
  </defs>
  <g id="group-71" transform="translate(3064.891 -148.495)">
    <g id="group" transform="translate(0 0.182)">
      <path id="path" class="cls-1" d="M0,49.2V.942A.7.7,0,0,1,.731.211h6.7c1.706,0,22.425-2.559,22.425,25.35,0,14.259-5.484,24.5-21.084,24.5H.731A.815.815,0,0,1,0,49.2ZM19.987,25.439c0-6.094-1.828-15.722-9.262-16.331a.815.815,0,0,0-.853.731V40.43a.686.686,0,0,0,.853.731C17.916,40.8,19.987,31.411,19.987,25.439Z" transform="translate(0 -0.15)"/>
      <path id="path-2" data-name="path" class="cls-1" d="M48.644.935V8.614a.7.7,0,0,1-.731.731H39.381a.7.7,0,0,0-.731.731v9.141a.7.7,0,0,0,.731.731h7.556a.7.7,0,0,1,.731.731v7.678a.7.7,0,0,1-.731.731H39.381a.7.7,0,0,0-.731.731V48.954a.7.7,0,0,1-.731.731H29.631a.7.7,0,0,1-.731-.731V.935A.7.7,0,0,1,29.631.2h18.4C48.278.082,48.644.448,48.644.935Z" transform="translate(6.322 -0.143)"/>
    </g>
    <path id="path-3" data-name="path" class="cls-2" d="M100.7,38" transform="translate(22.028 8.313)"/>
    <path id="path-4" data-name="path" class="cls-1" d="M103.387,39.694a2.194,2.194,0,1,1-2.194-2.194A2.112,2.112,0,0,1,103.387,39.694Z" transform="translate(21.656 8.203)"/>
    <path id="path-5" data-name="path" class="cls-1" d="M109.794,42.8a4.89,4.89,0,0,1-1.828.366c-3.169,0-4.266-3.291-4.266-5.972,0-2.925,1.1-6.094,4.509-6.094a3.374,3.374,0,0,1,1.584.366v2.8a1.384,1.384,0,0,0-.975-.366c-1.584,0-1.95,1.95-1.95,3.047,0,1.219.244,3.047,1.828,3.047a1.384,1.384,0,0,0,.975-.366V42.8Z" transform="translate(22.684 6.803)"/>
    <path id="path-6" data-name="path" class="cls-1" d="M118.475,37.194c0,2.925-.975,5.972-4.387,5.972s-4.387-3.047-4.387-5.972.975-6.094,4.387-6.094S118.475,34.269,118.475,37.194Zm-5.606,0c0,.609,0,3.169,1.219,3.169,1.1,0,1.219-2.437,1.219-3.169s0-3.169-1.219-3.169C112.869,34.147,112.869,36.584,112.869,37.194Z" transform="translate(23.997 6.803)"/>
    <path id="path-7" data-name="path" class="cls-1" d="M121.413,33.294h0a3.632,3.632,0,0,1,2.925-2.194c1.219,0,1.828.975,2.072,2.072h0a3.322,3.322,0,0,1,2.8-2.072c2.194,0,2.194,2.316,2.194,3.9v8.166h-3.291V36.706c0-.609.122-2.316-.853-2.316-.731,0-.853.853-.853,1.341v7.434h-3.291V36.584c0-.609.122-2.072-.731-2.072s-.975.731-.975,1.341v7.313H118V31.344h3.291Z" transform="translate(25.813 6.803)"/>
    <path id="path-8" data-name="path" class="cls-3" d="M66.466,31.688h-.122c-1.341,2.559-3.291,4.631-6.459,4.631-7.8,0-9.384-12.553-9.384-18.159C50.5,12.188,51.719.122,59.762.122c3.291,0,5.484,2.194,6.581,5h.122V0h9.75V36.319h-9.75Zm.731-13.65c0-1.95-.244-9.262-3.534-9.262s-3.412,7.313-3.412,9.262c0,2.194.122,9.384,3.534,9.384C66.953,27.422,67.2,19.866,67.2,18.038Z" transform="translate(11.047)"/>
    <path id="path-9" data-name="path" class="cls-3" d="M99.516,46.922h-9.75V31.688h-.122c-1.341,2.559-3.291,4.631-6.459,4.631-7.8,0-9.384-12.553-9.384-18.159C73.8,12.188,75.019.122,83.063.122c3.291,0,5.484,2.194,6.581,5h.122V0h9.75ZM90.5,18.038c0-1.95-.244-9.262-3.534-9.262s-3.413,7.313-3.413,9.262c0,2.194.122,9.384,3.534,9.384C90.131,27.422,90.5,19.866,90.5,18.038Z" transform="translate(16.144)"/>
    <path id="path-10" data-name="path" class="cls-3" d="M108.05,0V19.866c0,1.95-.731,7.313,2.438,7.313,2.559,0,2.438-3.412,2.438-5.119L113.047.122h9.628V23.034c0,8.044-3.778,13.284-12.431,13.284-10.969,0-11.944-8.288-11.944-14.625V0Z" transform="translate(21.503)"/>
    <rect id="rectangle" class="cls-3" width="9.75" height="36.319" transform="translate(147.469)"/>
  </g>
</svg>
