<svg xmlns="http://www.w3.org/2000/svg" viewBox="-1352 -2785.105 45.139 45.139">
  <defs>
    <style>
      .cls-1 {
        fill: #4ca22f;
      }

      .cls-2 {
        fill: #fff;
      }

      .cls-3 {
        opacity: 0.2;
      }
    </style>
  </defs>
  <g id="group-78" transform="translate(-1501 -2785.292)">
    <g id="group" transform="translate(149.154 0.187)">
      <path id="path" class="cls-1" d="M517.164,45.739H483.575a5.782,5.782,0,0,1-5.775-5.775V6.375A5.782,5.782,0,0,1,483.575.6h33.589a5.782,5.782,0,0,1,5.775,5.775V39.964A5.782,5.782,0,0,1,517.164,45.739Z" transform="translate(-477.954 -0.6)"/>
      <path id="comércio" class="cls-2" d="M2.254-6.148v.795a.49.49,0,0,0-.391-.2q-.644,0-.644,1.394,0,1.48.64,1.48a.688.688,0,0,0,.4-.159v.73a1.335,1.335,0,0,1-.628.163Q.371-1.946.371-4.082A3.49,3.49,0,0,1,.68-5.759a1.033,1.033,0,0,1,.962-.54A1.337,1.337,0,0,1,2.254-6.148ZM5.4-4.086q0,2.14-1.325,2.14T2.755-4.119Q2.755-6.3,4.076-6.3a1.269,1.269,0,0,1,.593.13,1.042,1.042,0,0,1,.414.4,2.118,2.118,0,0,1,.243.689A5.349,5.349,0,0,1,5.4-4.086ZM4.6-4.106a4.124,4.124,0,0,0-.11-1.158.4.4,0,0,0-.391-.33.414.414,0,0,0-.4.326,4.02,4.02,0,0,0-.11,1.137A3.973,3.973,0,0,0,3.7-3a.414.414,0,0,0,.4.326.4.4,0,0,0,.387-.322A3.617,3.617,0,0,0,4.6-4.106ZM6.13-6.23h.778v.522A.963.963,0,0,1,7.764-6.3a.785.785,0,0,1,.791.591.961.961,0,0,1,.88-.591.919.919,0,0,1,.679.234.937.937,0,0,1,.234.691v3.363H9.566V-4.787a1.512,1.512,0,0,0-.09-.64.339.339,0,0,0-.334-.167.408.408,0,0,0-.383.171,1.4,1.4,0,0,0-.1.636v2.776H7.854V-4.787a2.705,2.705,0,0,0-.022-.379.718.718,0,0,0-.075-.249.327.327,0,0,0-.139-.137.471.471,0,0,0-.212-.043.416.416,0,0,0-.383.183,1.247,1.247,0,0,0-.114.624v2.776H6.13Zm6.729,2.8h.726Q13.5-1.946,12.362-1.946a1.242,1.242,0,0,1-.581-.126,1.016,1.016,0,0,1-.4-.391,2.02,2.02,0,0,1-.234-.673,5.409,5.409,0,0,1-.075-.97,3.4,3.4,0,0,1,.312-1.655,1.038,1.038,0,0,1,.964-.538q1.268,0,1.268,2.234v.1H11.832q0,1.353.538,1.353Q12.859-2.615,12.859-3.434Zm-.041-1.1a2.846,2.846,0,0,0-.151-.872.355.355,0,0,0-.342-.232.351.351,0,0,0-.342.232,2.845,2.845,0,0,0-.151.872Zm.391-3.452-.827,1.125-.42-.24.689-1.243Zm1.1,1.753h.778V-5.7a1.488,1.488,0,0,1,.4-.469A1.015,1.015,0,0,1,16-6.328v.815a.958.958,0,0,0-.139-.012.739.739,0,0,0-.6.216,1.187,1.187,0,0,0-.175.742v2.556h-.778Zm3.978.082v.795a.49.49,0,0,0-.391-.2q-.644,0-.644,1.394,0,1.48.64,1.48a.688.688,0,0,0,.4-.159v.73a1.335,1.335,0,0,1-.628.163q-1.255,0-1.255-2.136a3.49,3.49,0,0,1,.31-1.677,1.033,1.033,0,0,1,.962-.54A1.337,1.337,0,0,1,18.284-6.148Zm.66-.082h.783v4.219h-.783Zm.367-1.793a.5.5,0,0,1,.367.155.506.506,0,0,1,.155.371.511.511,0,0,1-.155.375.511.511,0,0,1-.375.155.511.511,0,0,1-.375-.155.514.514,0,0,1-.151-.379.5.5,0,0,1,.155-.367A.543.543,0,0,1,19.311-8.023Zm3.782,3.937q0,2.14-1.325,2.14T20.444-4.119q0-2.181,1.321-2.181a1.269,1.269,0,0,1,.593.13,1.042,1.042,0,0,1,.414.4,2.118,2.118,0,0,1,.243.689A5.349,5.349,0,0,1,23.094-4.086Zm-.807-.02a4.124,4.124,0,0,0-.11-1.158.4.4,0,0,0-.391-.33.414.414,0,0,0-.4.326,4.02,4.02,0,0,0-.11,1.137A3.973,3.973,0,0,0,21.39-3a.414.414,0,0,0,.4.326.4.4,0,0,0,.387-.322A3.617,3.617,0,0,0,22.287-4.106Z" transform="translate(10.476 44.405)"/>
      <g id="group-2" data-name="group" transform="translate(1.635 2.81)">
        <g id="group-3" data-name="group" class="cls-3" transform="translate(0 0.874)">
          <path id="path-2" data-name="path" d="M516.9,53.811a2.343,2.343,0,0,0,1.779,2.279v7.8h-1.186a.593.593,0,0,0,0,1.186h17.794a.593.593,0,1,0,0-1.186H534.1v-7.8a2.343,2.343,0,0,0,1.779-2.279v-.593H516.9Zm11.862,2.372a2.371,2.371,0,0,0,2.372-2.372,2.343,2.343,0,0,0,1.779,2.279v7.8h-8.9V56.183a2.372,2.372,0,0,1,4.745,0Zm-5.338-.062v7.8h-3.559v-7.8a2.343,2.343,0,0,0,1.779-2.279A2.371,2.371,0,0,0,523.424,56.121Zm10.083-8.241H519.272L516.9,52.624h18.98Zm-11.613,1.342-1.186,2.372a.328.328,0,0,1-.281.156.188.188,0,0,1-.125-.031.275.275,0,0,1-.125-.406l1.186-2.372a.3.3,0,0,1,.531.281Zm2.372,0-1.186,2.372a.328.328,0,0,1-.281.156.188.188,0,0,1-.125-.031.275.275,0,0,1-.125-.406l1.186-2.372a.3.3,0,0,1,.531.281Zm2.4,2.216a.281.281,0,1,1-.562,0V49.066a.281.281,0,1,1,.562,0Zm3.4.281a.234.234,0,0,1-.156.031.278.278,0,0,1-.25-.156l-1.311-2.372a.3.3,0,0,1,.531-.281l1.311,2.372A.288.288,0,0,1,530.073,51.719Zm2.373,0a.188.188,0,0,1-.125.031.278.278,0,0,1-.25-.156l-1.186-2.372a.3.3,0,0,1,.531-.281l1.186,2.372A.321.321,0,0,1,532.446,51.719Zm-10.52,8.709V59.055a.53.53,0,0,1-.281-.5.614.614,0,0,1,.593-.593.574.574,0,0,1,.593.593.591.591,0,0,1-.281.5v1.374a.53.53,0,0,1,.281.5.593.593,0,1,1-.905-.5Zm-2.653-13.735a.614.614,0,0,1,.593-.593h13.049a.574.574,0,0,1,.593.593.593.593,0,0,1-.593.593H519.866A.593.593,0,0,1,519.272,46.693ZM527.3,59.367l-.406-.406,1.686-1.686.406.406Zm0,1.686-.406-.406,3.34-3.34.406.406Zm2.934-2.123.406.406-1.686,1.686-.406-.406Z" transform="translate(-506.329 -35.58)"/>
          <path id="path-3" data-name="path" d="M495.851,33.74c-.062-.125-.156-.219-.25-.156a.109.109,0,0,1-.062.031c-.031.031-.062.031-.125.062L491.262,35.8v-.062c.063-.187,1.249-5.088,1.249-5.088l-.031-.25-1.748,4.308.25.624-.312.749L487.423,37.8l-.187.094c-.125.062-.062.187-.031.312.062.125.624,1.155.718,1.311.187-.062.187-.187.125-.312s-.468-.905-.468-.905a.242.242,0,0,0,.094-.031l.094-.062.531,1.03.156-.062-.531-1.03.125-.062.531,1.03.156-.062-.531-1.03.094-.062.531,1.03.156-.062-.531-1.03.125-.062.531,1.03.156-.062-.531-1.03.125-.062.531,1.03.156-.062-.531-1.03.125-.062.531,1.03c0,.031-.031.031-.031.062a1.261,1.261,0,0,0,.25,1.467.679.679,0,0,0,.25.156,1.14,1.14,0,0,0,.905,0,1.339,1.339,0,0,0,.656-.656,1.3,1.3,0,0,0-.094-1.311,3.384,3.384,0,0,1-.219-.562l.063-.031-.156-.343a2.407,2.407,0,0,1-.062-.468l.375.718.156-.062-.531-1.03.125-.062.531,1.03.156-.062-.531-1.03.094-.062.531,1.03.156-.062-.531-1.03.125-.062.531,1.03.156-.062-.531-1.03.125-.062.531,1.03.156-.062-.531-1.03.125-.062.531,1.03.156-.062-.531-1.03.125-.062.531,1.03.156-.062-.531-1.03.125-.062.531,1.03.156-.062-.531-1.03.125-.062.531,1.03.156-.062-.531-1.03.125-.062.531,1.03.156-.062-.531-1.03.125-.062.531,1.03.156-.062-.531-1.03.125-.062.531,1.03.156-.062-.531-1.03.094-.062.531,1.03.156-.062-.531-1.03.125-.062.531,1.03.156-.062-.531-1.03.125-.062.531,1.03.156-.062L495.1,34.8l.125-.062.531,1.03.156-.062-.531-1.03.125-.062.531,1.03.156-.062-.531-1.03.094-.031a.242.242,0,0,1,.094-.031s.406.78.468.905.156.187.343.062C496.444,34.958,495.914,33.865,495.851,33.74Zm-4.839.937a.2.2,0,1,1,.031.281A.2.2,0,0,1,491.013,34.677Zm-.656,2.216Zm-.156.062.062.125-.062.156-.125-.25Zm-.281.156.187.375-.062.156-.25-.468Zm-.25.125.312.593-.062.156-.343-.687Zm-.281.156.406.812-.062.156-.468-.905Zm1.935,2a1.045,1.045,0,0,1-.468.5.661.661,0,0,1-.593,0c-.062-.031-.094-.062-.156-.094a.833.833,0,0,1-.156-1.03,1.045,1.045,0,0,1,.468-.5.661.661,0,0,1,.593,0c.062.031.094.062.156.094A.833.833,0,0,1,491.325,39.39Z" transform="translate(-485.873 -24.781)"/>
          <path id="path-4" data-name="path" d="M501.3,40.748l3.808-2.248h-.25s-1.9.78-3.34,1.374C501.425,40.217,501.362,40.529,501.3,40.748Z" transform="translate(-495.599 -30.352)"/>
          <path id="path-5" data-name="path" d="M484.867,46.723h0l3.028-1.779h0l-.156-.343c-.156.062-.25.125-.281.125a3.524,3.524,0,0,1-2.529,0,1.346,1.346,0,0,0-1.28.094,1.217,1.217,0,0,0-.562.749.959.959,0,0,0,.125.874,1.354,1.354,0,0,0,.187.219A1.214,1.214,0,0,0,484.867,46.723Zm-1.217-.343a.312.312,0,0,1-.125-.156.761.761,0,0,1-.062-.593.982.982,0,0,1,.406-.531.887.887,0,0,1,1.061.031.311.311,0,0,1,.125.156.761.761,0,0,1,.063.593.983.983,0,0,1-.406.531A.881.881,0,0,1,483.649,46.379Z" transform="translate(-483.036 -34.548)"/>
          <path id="path-6" data-name="path" d="M529.4,12.875a.679.679,0,0,0-.937,0l-3,3,.936.937,3-3A.679.679,0,0,0,529.4,12.875Zm-.281.531L526.524,16a.156.156,0,0,1-.25,0,.233.233,0,0,1,0-.281l2.591-2.591a.233.233,0,0,1,.281,0A.2.2,0,0,1,529.115,13.405Zm.187,5.057-2-2-.656.656.094.094a.233.233,0,0,1,0,.281.156.156,0,0,1-.25,0l-.219-.219h0l-.468-.468h0l-.281-.281h0l-.468-.468h0l-.219-.219a.2.2,0,0,1,.281-.281l.094.094.656-.656-.562-.562a1.7,1.7,0,0,0-.437-1.467,1.6,1.6,0,0,0-1.155-.468,2.409,2.409,0,0,0-.468.062c-.062.031-.125.062-.125.125-.031.062,0,.125.062.187l.624.624a.339.339,0,0,1,0,.468l-.219.219a.38.38,0,0,1-.5,0l-.624-.624a.229.229,0,0,0-.187-.062c-.062.031-.125.062-.125.125a1.646,1.646,0,0,0,.531,1.717,1.552,1.552,0,0,0,1.03.375,1.062,1.062,0,0,0,.312-.031l1.186,1.186-1.936,1.935-.094-.094a.238.238,0,0,0-.156-.062c-.062,0-.094.031-.125.094l-.562.812a.193.193,0,0,0,.031.25l.219.219a.236.236,0,0,0,.125.062.115.115,0,0,0,.094-.031l.812-.562c.031-.031.062-.094.094-.125,0-.062,0-.125-.062-.156l-.094-.094,1.935-1.935,2.622,2.622a.905.905,0,0,0,1.311,0A1.177,1.177,0,0,0,529.3,18.462Zm-.375.905a.47.47,0,0,1-.343.125.655.655,0,0,1-.343-.125.49.49,0,0,1,0-.687.47.47,0,0,1,.343-.125.655.655,0,0,1,.343.125A.49.49,0,0,1,528.927,19.368Z" transform="translate(-509.897 -12.469)"/>
          <path id="path-7" data-name="path" d="M567.773,13.84a.332.332,0,0,0,.031-.25c-.031-.062-.062-.156-.156-.187a.332.332,0,0,0-.25-.031,2.815,2.815,0,0,0-1,.718,2.717,2.717,0,0,0-.5.937c0,.031,0,.062.031.062a.828.828,0,0,1,.187.156.059.059,0,0,0,.094,0,1.73,1.73,0,0,1,.25-.187c.062-.031.094-.062.156-.094h0a1.771,1.771,0,0,1,.25-.406,1.79,1.79,0,0,1,.343-.343,2.34,2.34,0,0,1,.437-.25h0C567.679,13.933,567.742,13.9,567.773,13.84Z" transform="translate(-540.033 -13.059)"/>
          <path id="path-8" data-name="path" d="M585.08,16.8a.211.211,0,0,0-.187-.125.274.274,0,0,0-.219.031.211.211,0,0,0-.125.187.207.207,0,0,0,.031.187,1.737,1.737,0,0,1-.219,1.654c0,.031-.031.031-.031.062,0,0-.031.031,0,.031a1.063,1.063,0,0,1-.031.312c0,.062.031.094.062.094h0a.531.531,0,0,1,.218-.031h.094c.031,0,.031,0,.062-.031.062-.062.094-.125.156-.187a2.181,2.181,0,0,0,.375-1.093A2.522,2.522,0,0,0,585.08,16.8Z" transform="translate(-552.689 -15.329)"/>
          <path id="path-9" data-name="path" d="M560.064,23.8a1.1,1.1,0,0,0,.624-.156.059.059,0,0,1,.094,0,1,1,0,0,0,.406.156h.219a1.294,1.294,0,0,0,.5-.094.031.031,0,0,0,.031-.031.883.883,0,0,1,.562-.437h0c.062,0,.062-.062.031-.094a1.007,1.007,0,0,1-.25-.437.957.957,0,0,1,.094-.718.883.883,0,0,1,.562-.437h0c.062,0,.062-.062.031-.094a1.006,1.006,0,0,1-.25-.437.949.949,0,0,1,.531-1.093c.031,0,.031-.062.031-.094a1.414,1.414,0,0,0-1.4-.937,1.167,1.167,0,0,0-.812.281,1.223,1.223,0,0,0-.25.312c-.031.031-.094.031-.094,0a1.14,1.14,0,0,0-1.061-.593C557,18.962,557.848,23.8,560.064,23.8Z" transform="translate(-534.603 -16.871)"/>
          <path id="path-10" data-name="path" d="M561.811,12.4c-.062,0-.156.062-.156.125-.062.375-.062,1.311,1.249,1.249.062,0,.125-.062.156-.156A1.186,1.186,0,0,0,561.811,12.4Z" transform="translate(-537.099 -12.4)"/>
          <path id="path-11" data-name="path" d="M581.329,17.117a1.124,1.124,0,0,0-1.217-1.217c-.062,0-.156.062-.156.125-.062.375-.062,1.311,1.249,1.249A.143.143,0,0,0,581.329,17.117Z" transform="translate(-549.686 -14.807)"/>
          <path id="path-12" data-name="path" d="M583.008,31.3a.641.641,0,0,0-.656-.5.234.234,0,0,0-.156.031.589.589,0,0,0-.406.312.574.574,0,0,0-.062.5.641.641,0,0,0,.656.5.234.234,0,0,0,.156-.031A.661.661,0,0,0,583.008,31.3Z" transform="translate(-550.898 -25.056)"/>
          <path id="path-13" data-name="path" d="M576.908,32.2a.234.234,0,0,0-.156.031.671.671,0,0,0-.5.812.642.642,0,0,0,.656.5.234.234,0,0,0,.156-.031.589.589,0,0,0,.406-.312.574.574,0,0,0,.063-.5A.587.587,0,0,0,576.908,32.2Z" transform="translate(-547.138 -26.019)"/>
          <path id="path-14" data-name="path" d="M579,27.9a.574.574,0,0,0,.062-.5.641.641,0,0,0-.655-.5.234.234,0,0,0-.156.031.671.671,0,0,0-.5.812.641.641,0,0,0,.656.5.234.234,0,0,0,.156-.031A.76.76,0,0,0,579,27.9Z" transform="translate(-548.17 -22.374)"/>
          <path id="path-15" data-name="path" d="M574.565,22.9a1.061,1.061,0,0,0-.312.031.682.682,0,0,0-.406.812.661.661,0,0,0,.437.468.761.761,0,0,0,.375,0,.589.589,0,0,0,.406-.312.678.678,0,0,0-.5-1Z" transform="translate(-545.482 -19.622)"/>
          <path id="path-16" data-name="path" d="M584.313,26.5a.574.574,0,0,0,.062-.5.641.641,0,0,0-.656-.5.545.545,0,0,0-.375.125.7.7,0,0,0-.281.718.642.642,0,0,0,.656.5.234.234,0,0,0,.156-.031A.645.645,0,0,0,584.313,26.5Z" transform="translate(-551.828 -21.411)"/>
          <path id="path-17" data-name="path" d="M580.446,22.5a.574.574,0,0,0,.062-.5.641.641,0,0,0-.656-.5.234.234,0,0,0-.156.031.589.589,0,0,0-.406.312.574.574,0,0,0-.062.5.641.641,0,0,0,.656.5A.658.658,0,0,0,580.446,22.5Z" transform="translate(-549.178 -18.659)"/>
          <path id="path-18" data-name="path" d="M572.491,28.589a.574.574,0,0,0-.062.5.7.7,0,0,0,1.249.187.574.574,0,0,0,.062-.5.725.725,0,0,0-.812-.5A.646.646,0,0,0,572.491,28.589Z" transform="translate(-544.501 -23.313)"/>
          <path id="path-19" data-name="path" d="M571.42,33.531a.676.676,0,0,0-.468.812.641.641,0,0,0,.656.5.234.234,0,0,0,.156-.031.59.59,0,0,0,.406-.312.574.574,0,0,0,.062-.5.674.674,0,0,0-.656-.5A1.352,1.352,0,0,1,571.42,33.531Z" transform="translate(-543.493 -26.913)"/>
          <ellipse id="ellipse" cx="0.187" cy="0.187" rx="0.187" ry="0.187" transform="translate(33.609 9.771)"/>
          <ellipse id="ellipse-2" data-name="ellipse" cx="0.187" cy="0.187" rx="0.187" ry="0.187" transform="translate(34.233 9.771)"/>
          <ellipse id="ellipse-3" data-name="ellipse" cx="0.187" cy="0.187" rx="0.187" ry="0.187" transform="translate(37.823 9.771)"/>
          <ellipse id="ellipse-4" data-name="ellipse" cx="0.187" cy="0.187" rx="0.187" ry="0.187" transform="translate(38.448 9.771)"/>
          <ellipse id="ellipse-5" data-name="ellipse" cx="0.187" cy="0.187" rx="0.187" ry="0.187" transform="translate(39.103 9.771)"/>
          <path id="path-20" data-name="path" d="M596.248,53.7a1.748,1.748,0,1,0-1.748-1.748A1.745,1.745,0,0,0,596.248,53.7Zm0-3.122a1.386,1.386,0,0,1,1.373,1.374v.031a.307.307,0,0,1-.25.094.343.343,0,0,1-.281-.125.343.343,0,0,0-.281-.125c-.156,0-.187.062-.281.125a.4.4,0,0,1-.281.125.343.343,0,0,1-.281-.125.343.343,0,0,0-.281-.125.465.465,0,0,0-.281.125.378.378,0,0,1-.562,0v-.031A1.387,1.387,0,0,1,596.248,50.575Z" transform="translate(-559.705 -38.4)"/>
          <path id="path-21" data-name="path" d="M589.2,51.962h6.774V45.5H589.2Zm3.4-5.369a2.123,2.123,0,1,1-2.123,2.123A2.125,2.125,0,0,1,592.6,46.593Z" transform="translate(-556.059 -35.167)"/>
          <rect id="rectangle" width="6.774" height="0.687" transform="translate(33.141 8.772)"/>
        </g>
        <g id="group-4" data-name="group" transform="translate(0.905)">
          <g id="group-5" data-name="group">
            <g id="group-6" data-name="group" transform="translate(10.54 10.52)">
              <path id="path-22" data-name="path" class="cls-2" d="M519.7,51.011a2.343,2.343,0,0,0,1.779,2.279v7.8h-1.186a.593.593,0,0,0,0,1.186h17.794a.593.593,0,0,0,0-1.186H536.9v-7.8a2.343,2.343,0,0,0,1.779-2.279v-.593H519.7Zm11.862,2.372a2.371,2.371,0,0,0,2.372-2.372,2.343,2.343,0,0,0,1.779,2.279v7.8h-8.9V53.383a2.372,2.372,0,1,1,4.745,0Zm-5.338-.094v7.8h-3.559v-7.8a2.343,2.343,0,0,0,1.779-2.279A2.378,2.378,0,0,0,526.224,53.289Zm10.083-8.21H522.072L519.7,49.824h18.98ZM524.726,46.39l-1.186,2.372a.328.328,0,0,1-.281.156.188.188,0,0,1-.125-.031.276.276,0,0,1-.125-.406L524.2,46.11a.275.275,0,0,1,.406-.125A.354.354,0,0,1,524.726,46.39Zm2.372,0-1.186,2.372a.328.328,0,0,1-.281.156.188.188,0,0,1-.125-.031.275.275,0,0,1-.125-.406l1.186-2.372a.276.276,0,0,1,.406-.125A.354.354,0,0,1,527.1,46.39Zm2.4,2.248a.281.281,0,1,1-.562,0V46.266a.281.281,0,1,1,.562,0Zm3.4.25a.234.234,0,0,1-.156.031.278.278,0,0,1-.25-.156l-1.311-2.372a.3.3,0,1,1,.531-.281l1.311,2.372A.329.329,0,0,1,532.9,48.888Zm2.341,0a.188.188,0,0,1-.125.031.278.278,0,0,1-.25-.156l-1.186-2.372a.3.3,0,1,1,.531-.281l1.186,2.4A.285.285,0,0,1,535.246,48.888Zm-10.489,8.741V56.255a.53.53,0,0,1-.281-.5.614.614,0,0,1,.593-.593.574.574,0,0,1,.593.593.591.591,0,0,1-.281.5v1.374a.53.53,0,0,1,.281.5.593.593,0,1,1-1.186,0A.482.482,0,0,1,524.757,57.628Zm-2.685-13.735a.614.614,0,0,1,.593-.593h13.049a.593.593,0,1,1,0,1.186H522.666A.593.593,0,0,1,522.072,43.893ZM530.1,56.536l-.406-.406,1.654-1.686.406.406Zm0,1.686-.406-.406,3.34-3.371.406.406Zm2.934-2.092.406.406-1.686,1.686-.406-.406Z" transform="translate(-519.7 -43.3)"/>
            </g>
            <g id="group-7" data-name="group">
              <g id="group-8" data-name="group" transform="translate(0 5.619)">
                <g id="group-9" data-name="group">
                  <path id="path-23" data-name="path" class="cls-2" d="M498.751,30.94c-.062-.125-.156-.219-.25-.156a.109.109,0,0,1-.062.031c-.031.031-.062.031-.125.062L494.162,33v-.062c.062-.187,1.249-5.088,1.249-5.088l-.031-.25-1.748,4.308.25.624-.312.749-3.247,1.654-.187.094c-.125.062-.062.187-.031.312.062.125.624,1.155.718,1.311.187-.062.187-.187.125-.312s-.468-.905-.468-.905a.241.241,0,0,0,.094-.031l.094-.062.531,1.03.156-.062-.531-1.03.125-.062.531,1.03.156-.062-.531-1.03.094-.062.531,1.03.156-.062-.531-1.03.125-.062.531,1.03.156-.062L491.6,34.9l.125-.062.531,1.03.156-.062-.531-1.03.125-.062.531,1.03c0,.031-.031.031-.031.062a1.261,1.261,0,0,0,.25,1.467.68.68,0,0,0,.25.156,1.14,1.14,0,0,0,.905,0,1.339,1.339,0,0,0,.656-.656,1.3,1.3,0,0,0-.094-1.311,3.367,3.367,0,0,1-.219-.562l.062-.031-.156-.343a2.407,2.407,0,0,1-.062-.468l.375.718.156-.062-.531-1.03.125-.062.531,1.03.156-.062-.531-1.03.094-.062.531,1.03.156-.062-.531-1.03.125-.062.531,1.03.156-.062-.531-1.03.125-.062.531,1.03.156-.062-.531-1.03.125-.062.531,1.03.156-.062-.531-1.03L495.6,33l.531,1.03.156-.062-.531-1.03.125-.062.531,1.03.156-.062-.531-1.03.125-.062.531,1.03.156-.062-.531-1.03.125-.062.531,1.03.156-.062-.531-1.03.125-.062.531,1.03.156-.062-.531-1.03.125-.062.531,1.03.156-.062-.531-1.03.094-.062.531,1.03.156-.062-.531-1.03.125-.062.531,1.03.156-.062-.531-1.03.125-.062.531,1.03.156-.062-.531-1.03.125-.062.531,1.03.156-.062-.531-1.03.125-.062.531,1.03.156-.062-.531-1.03.094-.031a.242.242,0,0,1,.094-.031s.406.78.468.905.156.187.343.062C499.344,32.126,498.814,31.065,498.751,30.94Zm-4.87.905a.2.2,0,1,1,.031.281A.2.2,0,0,1,493.881,31.845Zm-.656,2.216Zm-.156.094.062.125-.062.156-.125-.25Zm-.281.125.187.375-.062.156-.25-.468Zm-.25.156.312.593-.062.156-.343-.687Zm-.281.125.406.812-.062.156-.468-.905Zm1.967,2.029a1.044,1.044,0,0,1-.468.5.661.661,0,0,1-.593,0c-.062-.031-.094-.062-.156-.094a.833.833,0,0,1-.156-1.03,1.044,1.044,0,0,1,.468-.5.661.661,0,0,1,.593,0c.062.031.094.062.156.094A.929.929,0,0,1,494.225,36.59Z" transform="translate(-488.773 -27.6)"/>
                  <path id="path-24" data-name="path" class="cls-2" d="M504.1,37.948l3.808-2.248h-.25s-1.9.78-3.34,1.374C504.256,37.417,504.162,37.7,504.1,37.948Z" transform="translate(-498.43 -33.171)"/>
                  <path id="path-25" data-name="path" class="cls-2" d="M487.767,43.823h0l3.028-1.779h0l-.156-.343c-.156.062-.25.125-.281.125a3.524,3.524,0,0,1-2.529,0,1.346,1.346,0,0,0-1.28.094,1.217,1.217,0,0,0-.562.749.959.959,0,0,0,.125.874,1.355,1.355,0,0,0,.187.219A1.167,1.167,0,0,0,487.767,43.823Zm-1.249-.312a.312.312,0,0,1-.125-.156.761.761,0,0,1-.062-.593.982.982,0,0,1,.406-.531.887.887,0,0,1,1.061.031.311.311,0,0,1,.125.156.761.761,0,0,1,.063.593.983.983,0,0,1-.406.531A.935.935,0,0,1,486.518,43.511Z" transform="translate(-485.936 -37.298)"/>
                </g>
              </g>
              <path id="path-26" data-name="path" class="cls-2" d="M532.2,9.975a.679.679,0,0,0-.936,0l-3,3,.936.937,3-3A.625.625,0,0,0,532.2,9.975Zm-.25.562-2.591,2.591a.156.156,0,0,1-.25,0,.233.233,0,0,1,0-.281l2.591-2.591a.233.233,0,0,1,.281,0A.311.311,0,0,1,531.946,10.537Zm.156,5.026-2-2-.655.656.094.094a.233.233,0,0,1,0,.281.237.237,0,0,1-.125.062.162.162,0,0,1-.125-.062l-.219-.219h0l-.468-.468h0l-.281-.281h0l-.468-.468h0l-.219-.219a.2.2,0,1,1,.281-.281l.094.094.656-.656-.562-.562a1.7,1.7,0,0,0-.437-1.467,1.6,1.6,0,0,0-1.155-.468,2.409,2.409,0,0,0-.468.062c-.062.031-.125.062-.125.125-.031.062,0,.125.062.187l.624.624a.34.34,0,0,1,0,.468l-.219.219a.38.38,0,0,1-.5,0l-.624-.624a.229.229,0,0,0-.187-.062c-.062.031-.125.062-.125.125a1.646,1.646,0,0,0,.531,1.717,1.551,1.551,0,0,0,1.03.375,1.062,1.062,0,0,0,.312-.031l1.186,1.186-1.935,1.935-.094-.094a.239.239,0,0,0-.156-.062c-.062,0-.094.031-.125.094l-.562.812a.193.193,0,0,0,.031.25l.219.219a.236.236,0,0,0,.125.062.115.115,0,0,0,.094-.031l.812-.562c.031-.031.062-.094.094-.125,0-.062,0-.125-.062-.156l-.094-.094,1.935-1.935,2.622,2.622a.905.905,0,0,0,1.311,0A1.087,1.087,0,0,0,532.1,15.562Zm-.375.937a.469.469,0,0,1-.343.125.655.655,0,0,1-.343-.125.49.49,0,0,1,0-.687.47.47,0,0,1,.343-.125.654.654,0,0,1,.343.125A.49.49,0,0,1,531.727,16.5Z" transform="translate(-512.728 -9.6)"/>
              <g id="group-10" data-name="group" transform="translate(23.38 0)">
                <g id="group-11" data-name="group">
                  <path id="path-27" data-name="path" class="cls-2" d="M570.573,11.04a.332.332,0,0,0,.031-.25c-.031-.062-.062-.156-.156-.187a.332.332,0,0,0-.25-.031,2.814,2.814,0,0,0-1,.718,2.716,2.716,0,0,0-.5.937c0,.031,0,.062.031.062a.825.825,0,0,1,.187.156.059.059,0,0,0,.094,0,1.733,1.733,0,0,1,.25-.187c.063-.031.094-.062.156-.094h0a1.766,1.766,0,0,1,.25-.406,1.791,1.791,0,0,1,.343-.343,2.34,2.34,0,0,1,.437-.25h0C570.479,11.133,570.542,11.1,570.573,11.04Z" transform="translate(-566.244 -10.259)"/>
                  <path id="path-28" data-name="path" class="cls-2" d="M587.88,13.9a.211.211,0,0,0-.187-.125.274.274,0,0,0-.219.031.211.211,0,0,0-.125.187.207.207,0,0,0,.031.187,1.737,1.737,0,0,1-.219,1.654c0,.031-.031.031-.031.062,0,0-.031.031,0,.031a1.063,1.063,0,0,1-.031.312c0,.062.031.094.062.094h0a.532.532,0,0,1,.219-.031h.094c.031,0,.031,0,.062-.031.062-.062.094-.125.156-.187a2.287,2.287,0,0,0,.187-2.185Z" transform="translate(-578.9 -12.46)"/>
                  <path id="path-29" data-name="path" class="cls-2" d="M562.913,20.9a1.1,1.1,0,0,0,.624-.156.059.059,0,0,1,.094,0,1,1,0,0,0,.406.156h.219a1.294,1.294,0,0,0,.5-.094.031.031,0,0,0,.031-.031.883.883,0,0,1,.562-.437h0c.062,0,.062-.062.031-.094a1.006,1.006,0,0,1-.25-.437.956.956,0,0,1,.094-.718.882.882,0,0,1,.562-.437h0c.063,0,.063-.062.031-.094a1.006,1.006,0,0,1-.25-.437.949.949,0,0,1,.531-1.093c.031,0,.031-.062.031-.094a1.413,1.413,0,0,0-1.4-.937,1.167,1.167,0,0,0-.812.281,1.223,1.223,0,0,0-.25.312c-.031.031-.094.031-.094,0A1.139,1.139,0,0,0,562.507,16C559.823,16.062,560.666,20.9,562.913,20.9Z" transform="translate(-560.832 -14.002)"/>
                  <path id="path-30" data-name="path" class="cls-2" d="M564.611,9.6c-.062,0-.156.062-.156.125-.063.375-.063,1.311,1.249,1.249.062,0,.125-.062.156-.156A1.152,1.152,0,0,0,564.611,9.6Z" transform="translate(-563.31 -9.6)"/>
                  <path id="path-31" data-name="path" class="cls-2" d="M584.229,14.317a1.124,1.124,0,0,0-1.218-1.217c-.062,0-.156.062-.156.125-.062.375-.062,1.311,1.249,1.249C584.166,14.474,584.229,14.38,584.229,14.317Z" transform="translate(-575.966 -12.007)"/>
                  <path id="path-32" data-name="path" class="cls-2" d="M585.808,28.5a.641.641,0,0,0-.656-.5.234.234,0,0,0-.156.031.589.589,0,0,0-.406.312.574.574,0,0,0-.062.5.641.641,0,0,0,.656.5.233.233,0,0,0,.156-.031A.676.676,0,0,0,585.808,28.5Z" transform="translate(-577.109 -22.256)"/>
                  <path id="path-33" data-name="path" class="cls-2" d="M579.808,29.3a.234.234,0,0,0-.156.031.671.671,0,0,0-.5.812.641.641,0,0,0,.656.5.234.234,0,0,0,.156-.031.589.589,0,0,0,.406-.312.574.574,0,0,0,.063-.5A.638.638,0,0,0,579.808,29.3Z" transform="translate(-573.418 -23.15)"/>
                  <path id="path-34" data-name="path" class="cls-2" d="M581.8,25a.574.574,0,0,0,.062-.5.641.641,0,0,0-.656-.5.234.234,0,0,0-.156.031.671.671,0,0,0-.5.812.641.641,0,0,0,.656.5.234.234,0,0,0,.156-.031A.646.646,0,0,0,581.8,25Z" transform="translate(-574.381 -19.505)"/>
                  <path id="path-35" data-name="path" class="cls-2" d="M577.465,20a1.062,1.062,0,0,0-.312.031.682.682,0,0,0-.406.812.661.661,0,0,0,.437.468.761.761,0,0,0,.375,0,.589.589,0,0,0,.406-.312.574.574,0,0,0,.062-.5A.668.668,0,0,0,577.465,20Z" transform="translate(-571.762 -16.753)"/>
                  <path id="path-36" data-name="path" class="cls-2" d="M587.113,23.7a.574.574,0,0,0,.062-.5.641.641,0,0,0-.656-.5.545.545,0,0,0-.375.125.7.7,0,0,0-.281.718.641.641,0,0,0,.656.5.234.234,0,0,0,.156-.031A.76.76,0,0,0,587.113,23.7Z" transform="translate(-578.039 -18.611)"/>
                  <path id="path-37" data-name="path" class="cls-2" d="M583.246,19.7a.574.574,0,0,0,.062-.5.641.641,0,0,0-.656-.5.234.234,0,0,0-.156.031.589.589,0,0,0-.406.312.574.574,0,0,0-.062.5.641.641,0,0,0,.655.5A.685.685,0,0,0,583.246,19.7Z" transform="translate(-575.389 -15.859)"/>
                  <path id="path-38" data-name="path" class="cls-2" d="M575.391,25.689a.573.573,0,0,0-.062.5.7.7,0,0,0,1.249.187.574.574,0,0,0,.063-.5.725.725,0,0,0-.812-.5A.6.6,0,0,0,575.391,25.689Z" transform="translate(-570.781 -20.444)"/>
                  <path id="path-39" data-name="path" class="cls-2" d="M574.32,30.731a.676.676,0,0,0-.468.812.641.641,0,0,0,.656.5.234.234,0,0,0,.156-.031.589.589,0,0,0,.406-.312.574.574,0,0,0,.062-.5.674.674,0,0,0-.656-.5A.339.339,0,0,0,574.32,30.731Z" transform="translate(-569.773 -24.113)"/>
                </g>
              </g>
              <g id="group-12" data-name="group" transform="translate(33.141 8.772)">
                <ellipse id="ellipse-6" data-name="ellipse" class="cls-2" cx="0.187" cy="0.187" rx="0.187" ry="0.187" transform="translate(0.437 0.968)"/>
                <ellipse id="ellipse-7" data-name="ellipse" class="cls-2" cx="0.187" cy="0.187" rx="0.187" ry="0.187" transform="translate(1.093 0.968)"/>
                <ellipse id="ellipse-8" data-name="ellipse" class="cls-2" cx="0.187" cy="0.187" rx="0.187" ry="0.187" transform="translate(4.651 0.968)"/>
                <ellipse id="ellipse-9" data-name="ellipse" class="cls-2" cx="0.187" cy="0.187" rx="0.187" ry="0.187" transform="translate(5.307 0.968)"/>
                <ellipse id="ellipse-10" data-name="ellipse" class="cls-2" cx="0.187" cy="0.187" rx="0.187" ry="0.187" transform="translate(5.931 0.968)"/>
                <path id="path-40" data-name="path" class="cls-2" d="M599.048,50.9a1.748,1.748,0,1,0-1.748-1.748A1.745,1.745,0,0,0,599.048,50.9Zm0-3.122a1.386,1.386,0,0,1,1.373,1.374v.031a.307.307,0,0,1-.25.094.343.343,0,0,1-.281-.125.343.343,0,0,0-.281-.125c-.156,0-.187.062-.281.125a.4.4,0,0,1-.281.125.343.343,0,0,1-.281-.125.343.343,0,0,0-.281-.125.465.465,0,0,0-.281.125.378.378,0,0,1-.562,0v-.031A1.43,1.43,0,0,1,599.048,47.775Z" transform="translate(-595.677 -44.372)"/>
                <path id="path-41" data-name="path" class="cls-2" d="M592.1,49.162h6.774V42.7H592.1Zm3.371-5.369a2.123,2.123,0,1,1-2.123,2.123A2.125,2.125,0,0,1,595.471,43.793Z" transform="translate(-592.1 -41.139)"/>
                <rect id="rectangle-2" data-name="rectangle" class="cls-2" width="6.774" height="0.687"/>
              </g>
            </g>
          </g>
        </g>
      </g>
    </g>
  </g>
</svg>
