<svg xmlns="http://www.w3.org/2000/svg" viewBox="-1568 -2810.341 142.317 45.389">
  <defs>
    <style>
      .cls-1 {
        fill: #004563;
      }

      .cls-2 {
        fill: none;
        stroke: #004563;
        stroke-width: 4px;
      }

      .cls-3 {
        fill: #f9b000;
      }
    </style>
  </defs>
  <g id="group" transform="translate(-1568 -2810.341)">
    <g id="group-2" data-name="group" transform="translate(0 0.071)">
      <path id="path" class="cls-1" d="M0,44.766V1A.706.706,0,0,1,.718.282H6.774C8.335.282,27.034-2,27.034,23.227c0,12.893-4.963,22.226-19.042,22.226H.718A.664.664,0,0,1,0,44.766ZM18.106,23.2c0-5.557-1.654-14.2-8.4-14.828a.721.721,0,0,0-.78.718V36.775a.733.733,0,0,0,.749.718C16.264,37.181,18.106,28.627,18.106,23.2Z" transform="translate(0 -0.229)"/>
      <path id="path-2" data-name="path" class="cls-1" d="M119.743,1.118V8.079a.706.706,0,0,1-.718.718h-7.679a.706.706,0,0,0-.718.718v8.241a.706.706,0,0,0,.718.718h6.805a.706.706,0,0,1,.718.718v6.961a.706.706,0,0,1-.718.718h-6.805a.706.706,0,0,0-.718.718V44.946a.706.706,0,0,1-.718.718h-7.492a.706.706,0,0,1-.718-.718V1.118A.706.706,0,0,1,102.418.4h16.607A.706.706,0,0,1,119.743,1.118Z" transform="translate(-69.953 -0.347)"/>
    </g>
    <path id="path-3" data-name="path" class="cls-2" d="M356.1,134.4" transform="translate(-244.937 -92.445)"/>
    <path id="path-4" data-name="path" class="cls-1" d="M354.233,134.667a1.958,1.958,0,0,1-1.967,1.967,1.978,1.978,0,0,1-1.967-1.967,1.967,1.967,0,1,1,3.933,0Z" transform="translate(-240.948 -91.275)"/>
    <path id="path-5" data-name="path" class="cls-1" d="M372.025,120.682a3.911,3.911,0,0,1-1.686.375c-2.841,0-3.84-3-3.84-5.4,0-2.653,1.03-5.557,4.089-5.557a3.447,3.447,0,0,1,1.467.312V113a1.13,1.13,0,0,0-.843-.343c-1.436,0-1.748,1.717-1.748,2.81,0,1.124.219,2.81,1.717,2.81a1.585,1.585,0,0,0,.905-.312v2.716Z" transform="translate(-252.091 -75.73)"/>
    <path id="path-6" data-name="path" class="cls-1" d="M395.492,115.594c0,2.685-.843,5.463-4,5.463s-4-2.778-4-5.463.843-5.494,4-5.494S395.492,112.91,395.492,115.594Zm-5.057,0c0,.593.031,2.841,1.061,2.841s1.061-2.216,1.061-2.841c0-.593-.031-2.841-1.061-2.841S390.434,115,390.434,115.594Z" transform="translate(-266.535 -75.73)"/>
    <path id="path-7" data-name="path" class="cls-1" d="M420.159,112.035h.031a3.018,3.018,0,0,1,2.622-1.935,1.909,1.909,0,0,1,1.842,1.842h.031a3.1,3.1,0,0,1,2.56-1.842c1.935,0,1.935,2.154,1.935,3.527v7.43h-3v-5.806c0-.562.156-2.123-.749-2.123-.687,0-.812.718-.812,1.217v6.743h-3v-6.025c0-.531.156-1.9-.687-1.9-.749,0-.843.687-.843,1.217v6.68h-3V110.319h3Z" transform="translate(-286.895 -75.73)"/>
    <path id="path-8" data-name="path" class="cls-3" d="M193.085,28.657h-.125c-1.186,2.372-3,4.183-5.806,4.183-7.117,0-8.553-11.363-8.553-16.42,0-5.432,1.061-16.358,8.429-16.358,2.934,0,4.932,1.935,5.931,4.5h.125V0h8.8V32.84h-8.8Zm.624-12.362c0-1.748-.187-8.429-3.184-8.429-2.934,0-3.122,6.618-3.122,8.429,0,2,.125,8.491,3.247,8.491C193.459,24.786,193.709,17.981,193.709,16.3Z" transform="translate(-122.847)"/>
    <path id="path-9" data-name="path" class="cls-3" d="M284.088,42.517h-8.8V28.657h-.125c-1.186,2.372-3,4.183-5.806,4.183-7.117,0-8.553-11.363-8.553-16.42,0-5.432,1.061-16.358,8.429-16.358,2.934,0,4.932,1.935,5.931,4.5h.125V0h8.8ZM275.909,16.3c0-1.748-.187-8.429-3.184-8.429-2.934,0-3.122,6.618-3.122,8.429,0,2,.125,8.491,3.247,8.491C275.659,24.786,275.909,17.981,275.909,16.3Z" transform="translate(-179.387)"/>
    <path id="path-10" data-name="path" class="cls-3" d="M356.3,0V17.981c0,1.748-.687,6.618,2.248,6.618,2.372,0,2.185-3.122,2.185-4.683L360.8,0h8.741V20.79c0,7.3-3.434,12.05-11.238,12.05-9.989,0-10.8-7.492-10.8-13.236V0Z" transform="translate(-239.022)"/>
    <rect id="rectangle" class="cls-3" width="8.803" height="32.84" transform="translate(133.514)"/>
  </g>
</svg>
