<svg xmlns="http://www.w3.org/2000/svg" viewBox="-1352.034 -2718.247 45.327 45.327">
  <defs>
    <style>
      .cls-1 {
        fill: #f9b000;
      }

      .cls-2 {
        fill: #fff;
      }

      .cls-3 {
        opacity: 0.29;
      }
    </style>
  </defs>
  <g id="group-79" transform="translate(-1501 -2718.341)">
    <g id="group" transform="translate(148.966 0.094)">
      <path id="path" class="cls-1" d="M516.72,45.627H483.006A5.836,5.836,0,0,1,477.2,39.82V6.106A5.836,5.836,0,0,1,483.006.3H516.72a5.836,5.836,0,0,1,5.806,5.806V39.82A5.835,5.835,0,0,1,516.72,45.627Z" transform="translate(-477.2 -0.3)"/>
      <g id="group-2" data-name="group" transform="translate(10.832 34.557)">
        <path id="path-2" data-name="path" class="cls-2" d="M513.991,118.492h0c-.219.437-.406.718-.936.718-1.155,0-1.155-1.811-1.155-2.591,0-.812.031-2.466,1.186-2.466a.909.909,0,0,1,.874.624h.031V111h.905v8.116h-.905Zm.031-1.842c0-.375.031-1.717-.562-1.717-.687,0-.593,1.311-.593,1.717s-.062,1.717.593,1.717C514.054,118.367,514.023,117.025,514.023,116.65Z" transform="translate(-511.9 -111)"/>
        <path id="path-3" data-name="path" class="cls-2" d="M524.668,123.716c0,.406-.031,1.53.562,1.53.5,0,.562-.531.562-.905h.843c0,.905-.406,1.748-1.436,1.748-1.374,0-1.5-1.467-1.5-2.5,0-1,.125-2.591,1.467-2.591s1.5,1.561,1.5,2.591v.156h-2Zm1.093-.656c0-.375,0-1.249-.562-1.249s-.531.874-.531,1.249Z" transform="translate(-520.016 -117.878)"/>
        <path id="path-4" data-name="path" class="cls-2" d="M536.505,119.116H535.6V111h.905Z" transform="translate(-528.202 -111)"/>
        <path id="path-5" data-name="path" class="cls-2" d="M540.7,115.093a.6.6,0,0,1,.624-.593.614.614,0,0,1,.593.593.609.609,0,1,1-1.217,0Zm1.061,6.431h-.905v-4.932h.905Z" transform="translate(-531.71 -113.407)"/>
        <path id="path-6" data-name="path" class="cls-2" d="M546.868,121.2l.656,3.715h.031l.031-.281.375-2,.312-1.436h.874l-1.311,4.932h-.593L545.9,121.2Z" transform="translate(-535.286 -118.016)"/>
        <path id="path-7" data-name="path" class="cls-2" d="M558.368,123.716c0,.406-.031,1.53.562,1.53.5,0,.562-.531.562-.905h.843c0,.905-.406,1.748-1.436,1.748-1.374,0-1.5-1.467-1.5-2.5,0-1,.125-2.591,1.467-2.591s1.5,1.561,1.5,2.591v.156h-2Zm1.093-.656c0-.375,0-1.249-.562-1.249s-.531.874-.531,1.249Z" transform="translate(-543.196 -117.878)"/>
        <path id="path-8" data-name="path" class="cls-2" d="M570.136,121.587h0a1.154,1.154,0,0,1,1.061-.687v.905h-.156c-.687,0-.905.375-.905,1v3.09H569.2v-4.932h.905v.624Z" transform="translate(-551.313 -117.81)"/>
        <path id="path-9" data-name="path" class="cls-2" d="M578.1,121.2l.718,3.434h.031l.843-3.434h.937l-2,6.961h-.968l.749-2.435L577.1,121.2Z" transform="translate(-556.747 -118.016)"/>
      </g>
      <g id="group-3" data-name="group" transform="translate(1.717 2.216)">
        <g id="group-4" data-name="group" class="cls-3" transform="translate(0 0.874)">
          <path id="path-10" data-name="path" d="M532.272,52.8h2.216v.905a.213.213,0,0,0,.219.219h.468a.213.213,0,0,0,.219-.219V52.8h2.216a.313.313,0,0,1,.312.312v4.714a.313.313,0,0,1-.312.312H532.3a.313.313,0,0,1-.312-.312V53.081C531.96,52.925,532.116,52.8,532.272,52.8Z" transform="translate(-516.601 -39.502)"/>
          <path id="path-11" data-name="path" d="M534.9,89.435a2.435,2.435,0,1,1,2.435,2.435A2.438,2.438,0,0,1,534.9,89.435Zm1.249,0a1.217,1.217,0,1,0,1.217-1.217A1.219,1.219,0,0,0,536.149,89.435Z" transform="translate(-518.605 -63.026)"/>
          <path id="path-12" data-name="path" d="M578.1,89.435a2.435,2.435,0,1,1,2.435,2.435A2.438,2.438,0,0,1,578.1,89.435Zm1.217,0a1.217,1.217,0,1,0,1.218-1.217A1.24,1.24,0,0,0,579.317,89.435Z" transform="translate(-548.319 -63.026)"/>
          <path id="path-13" data-name="path" d="M531.364,63.267v-.656h-1.686a.693.693,0,0,1-.687-.687v-.5a.693.693,0,0,1,.687-.687h8.491a.693.693,0,0,1,.687.687v.5a.693.693,0,0,1-.687.687h-.937V65.3h4.714a4.882,4.882,0,0,1,1.311-1.342l-1.842-6.68H539.7a.687.687,0,1,1,0-1.374h2.435a.923.923,0,0,1,.312.062,1.01,1.01,0,0,1,.281.25l4.932,7.367a.9.9,0,0,1,.187.718.762.762,0,0,1-1,.375,3.25,3.25,0,0,0-4.245,3.122.693.693,0,0,1-.687.687h-5.4a.693.693,0,0,1-.687-.687,3.278,3.278,0,0,0-6.556,0,.687.687,0,1,1-1.373,0A4.656,4.656,0,0,1,531.364,63.267Z" transform="translate(-513.789 -41.634)"/>
          <path id="path-14" data-name="path" d="M507.78,84.018a.726.726,0,0,1-.718.718h-5.744a.718.718,0,1,1,0-1.436h5.744A.726.726,0,0,1,507.78,84.018Z" transform="translate(-495.012 -60.481)"/>
          <path id="path-15" data-name="path" d="M513.075,75.018a.726.726,0,0,1-.718.718h-4.339a.718.718,0,0,1,0-1.436h4.339A.726.726,0,0,1,513.075,75.018Z" transform="translate(-499.621 -54.29)"/>
          <path id="path-16" data-name="path" d="M517.752,66.636h-2.934a.718.718,0,1,1,0-1.436h2.934a.726.726,0,0,1,.718.718A.706.706,0,0,1,517.752,66.636Z" transform="translate(-504.298 -48.031)"/>
          <path id="path-17" data-name="path" d="M559.639,21.438c-.094-.031-.375-.094-.281-.531a3.719,3.719,0,0,0,.062-.968c-.031-.312-.062-5.182-.062-5.4s-.062-.531.593-1.436c.281-.375.187-.531.218-.937.031-.25.031-1.061.031-1.28h0c-.031-.062-.062-.281,0-.343h0v-.219a.134.134,0,0,1,.125-.125h.812a.131.131,0,0,1,.125.125v.219h0a.338.338,0,0,1,0,.343h0c0,.219,0,1.03.031,1.28a1.443,1.443,0,0,0,.219.937,2.185,2.185,0,0,1,.593,1.436c0,.219-.031,5.12-.062,5.4a2.716,2.716,0,0,0,.062.968c.094.468-.187.531-.281.531Z" transform="translate(-535.415 -10.2)"/>
          <path id="path-18" data-name="path" d="M550.567,35.01c.656-.094,1.124-.749,1.124-2.31H549.1c0,1.53.5,2.216,1.124,2.31v1.717h-.656v.187h1.623v-.187h-.656l.031-1.717Z" transform="translate(-528.372 -25.676)"/>
          <path id="path-19" data-name="path" d="M531.354,13.427a1.4,1.4,0,0,0-1.654.593l2.56.905A1.373,1.373,0,0,0,531.354,13.427Z" transform="translate(-515.028 -12.365)"/>
          <path id="path-20" data-name="path" d="M529.974,18.7a1.4,1.4,0,0,0,1.654-.593l-2.56-.905A1.394,1.394,0,0,0,529.974,18.7Z" transform="translate(-514.584 -15.015)"/>
          <path id="path-21" data-name="path" d="M523.906,11.8a.8.8,0,0,0-1-.094.844.844,0,0,0-.312.968Z" transform="translate(-510.108 -11.144)"/>
          <path id="path-22" data-name="path" d="M524.3,14.168a.844.844,0,0,0,.312-.968l-1.311.874A.8.8,0,0,0,524.3,14.168Z" transform="translate(-510.626 -12.263)"/>
          <path id="path-23" data-name="path" d="M521.091,17.359a1.029,1.029,0,0,0-1.4-.219l-1.717,1.28-.094.094a1.463,1.463,0,0,0-.281-.687l-2.029-2.778a1.586,1.586,0,1,0-2.56,1.873l2.029,2.778a1.6,1.6,0,0,0,2.248.343,1.333,1.333,0,0,0,.406-.437.785.785,0,0,0,.125.219,1.034,1.034,0,0,0,1.4.219l1.717-1.28A1.091,1.091,0,0,0,521.091,17.359Zm-5.588,2-2.029-2.778a.991.991,0,0,1,.219-1.374l3.184,4.37A.991.991,0,0,1,515.5,19.357Zm2.56.25a.639.639,0,0,1,.125-.874l1.717-1.28a.639.639,0,0,1,.874.125Z" transform="translate(-503.328 -13.082)"/>
          <path id="path-24" data-name="path" d="M485.2,38.43a3.473,3.473,0,0,0,.406,1.623l2.716-1.561L485.543,36.9A3.447,3.447,0,0,0,485.2,38.43Zm.874.843-.281.094c-.031,0-.156.031-.156-.031-.031-.062.094-.094.125-.125.062-.031.125-.031.187-.062a.2.2,0,0,1,.187,0C486.2,39.21,486.105,39.241,486.074,39.272Zm1.186-1.061a.241.241,0,0,1,.25.219.223.223,0,0,1-.25.219.213.213,0,0,1-.219-.219C487.011,38.3,487.135,38.211,487.26,38.211Zm-.656.343a.343.343,0,1,1-.343-.343A.346.346,0,0,1,486.6,38.554Zm-.687-1.217a.241.241,0,0,1,.25.219.223.223,0,0,1-.25.219.213.213,0,0,1-.218-.219C485.668,37.431,485.762,37.337,485.918,37.337Zm-.437,1c-.187,0,.031-.156.125-.156C485.793,38.211,485.575,38.336,485.481,38.336Z" transform="translate(-484.42 -28.565)"/>
          <path id="path-25" data-name="path" d="M488.165,28.824V28.2a4.33,4.33,0,0,0-3.465,2l.531.312A3.609,3.609,0,0,1,488.165,28.824Z" transform="translate(-484.076 -22.581)"/>
          <path id="path-26" data-name="path" d="M500.634,29.01l.531-.312a4.208,4.208,0,0,0-3.465-2v.624A3.609,3.609,0,0,1,500.634,29.01Z" transform="translate(-493.017 -21.549)"/>
          <path id="path-27" data-name="path" d="M500.2,48.412l-.531-.312a3.722,3.722,0,0,1-2.872,1.654v.624A4.314,4.314,0,0,0,500.2,48.412Z" transform="translate(-492.398 -36.269)"/>
          <path id="path-28" data-name="path" d="M506.531,35.812a3.7,3.7,0,0,1,.406,1.654,3.6,3.6,0,0,1-.437,1.717l.531.312a4.336,4.336,0,0,0,.5-2.029,4.562,4.562,0,0,0-.468-1.967Z" transform="translate(-499.07 -27.602)"/>
          <path id="path-29" data-name="path" d="M483.73,39.084a3.507,3.507,0,0,1-.437-1.717,3.7,3.7,0,0,1,.406-1.654l-.531-.312a4.157,4.157,0,0,0-.468,1.967,4.533,4.533,0,0,0,.5,2.029Z" transform="translate(-482.7 -27.533)"/>
          <path id="path-30" data-name="path" d="M488.3,50.279v-.624A3.591,3.591,0,0,1,485.431,48l-.531.312A4.114,4.114,0,0,0,488.3,50.279Z" transform="translate(-484.213 -36.2)"/>
          <path id="path-31" data-name="path" d="M489.678,30.7a3.471,3.471,0,0,0-2.778,1.623l2.778,1.592Zm-1.717,1.717a.343.343,0,1,1,.343-.343A.346.346,0,0,1,487.961,32.417Zm1.061.656a.219.219,0,0,1,0-.437.241.241,0,0,1,.25.219A.265.265,0,0,1,489.023,33.072Zm-.031-.874a.172.172,0,0,0-.156-.094c-.062-.031-.094-.094-.031-.125a.264.264,0,0,1,.219-.062.68.68,0,0,1,.25.156C489.366,32.2,489.085,32.292,488.992,32.2Zm.125-.562a.219.219,0,0,1,0-.437.22.22,0,1,1,0,.437Z" transform="translate(-485.589 -24.301)"/>
          <path id="path-32" data-name="path" d="M500.353,38.361a3.293,3.293,0,0,0-.375-1.561L497.2,38.392l2.716,1.561A3.128,3.128,0,0,0,500.353,38.361Zm-.468-1c.187,0-.031.125-.125.125C499.572,37.487,499.791,37.362,499.885,37.362Zm-1.467,1.249a.223.223,0,0,1-.218-.25.213.213,0,0,1,.218-.219.241.241,0,0,1,.25.219A.246.246,0,0,1,498.417,38.611Zm.656-.468c.156,0-.125.125-.187.125C498.73,38.267,499.011,38.142,499.073,38.142Zm-.156.78c-.187,0,0-.187.125-.187C499.26,38.735,499.042,38.923,498.917,38.923Zm.624.593a.246.246,0,0,1-.25-.25.223.223,0,0,1,.25-.219.241.241,0,0,1,.25.219A.269.269,0,0,1,499.541,39.516Zm.125-.937a.343.343,0,1,1,.343-.343A.346.346,0,0,1,499.666,38.579Z" transform="translate(-492.674 -28.496)"/>
          <path id="path-33" data-name="path" d="M489.816,45.922V42.8L487.1,44.361A3.378,3.378,0,0,0,489.816,45.922Zm-.5-.25c-.187,0,.031-.156.125-.156C489.629,45.516,489.41,45.672,489.316,45.672Zm-.062-2.029a.241.241,0,0,1,.25.219.223.223,0,0,1-.25.219.219.219,0,1,1,0-.437Zm-.593.531c.187,0,0,.187-.125.187C488.349,44.361,488.536,44.174,488.661,44.174Zm.125.312a.343.343,0,1,1-.343.343A.346.346,0,0,1,488.786,44.486Zm-1-.281a.241.241,0,0,1,.25.219.223.223,0,0,1-.25.219.213.213,0,0,1-.219-.219A.235.235,0,0,1,487.787,44.2Z" transform="translate(-485.726 -32.623)"/>
          <path id="path-34" data-name="path" d="M499.516,44.361,496.8,42.8v3.122A3.473,3.473,0,0,0,499.516,44.361ZM497.3,45.422a.213.213,0,0,1-.219-.219.241.241,0,0,1,.219-.25.246.246,0,0,1,.25.25A.265.265,0,0,1,497.3,45.422Zm.156-.968a.343.343,0,1,1,.343-.343A.346.346,0,0,1,497.456,44.454Zm.343.531c-.156,0,.125-.125.187-.125C498.142,44.86,497.861,44.985,497.8,44.985Zm.874-.25a.241.241,0,0,1-.25-.219.25.25,0,1,1,.5,0A.242.242,0,0,1,498.673,44.735Z" transform="translate(-492.398 -32.623)"/>
          <path id="path-35" data-name="path" d="M497.7,29.2v3.215l2.778-1.592A3.426,3.426,0,0,0,497.7,29.2Zm.905.468a.241.241,0,0,1,.25.219.223.223,0,0,1-.25.219.213.213,0,0,1-.218-.219A.235.235,0,0,1,498.605,29.668Zm-.5-.219c.187,0,.031.187-.125.187C497.794,29.637,497.981,29.45,498.106,29.45Zm.156,2.185a.343.343,0,1,1,.343-.343A.346.346,0,0,1,498.262,31.635Zm.375-1.03c-.062.031-.156.062-.218,0a.579.579,0,0,0-.219-.062c-.062,0-.125-.062-.094-.125a.223.223,0,0,1,.187-.094,1.118,1.118,0,0,1,.343.125C498.7,30.48,498.668,30.542,498.636,30.6Zm.187.531c-.187,0-.031-.187.094-.187C499.136,30.948,498.949,31.135,498.824,31.135Zm.468-.312a.241.241,0,0,1-.25-.219.223.223,0,0,1,.25-.219.241.241,0,0,1,.25.219A.223.223,0,0,1,499.292,30.823Zm.437-.094c-.156,0,.125-.125.187-.125C500.072,30.6,499.791,30.73,499.729,30.73Z" transform="translate(-493.017 -23.269)"/>
          <path id="path-36" data-name="path" d="M583,22.087c0-.905,1.186-1.061,1.186-1.561a.353.353,0,0,0-.375-.343.577.577,0,0,0-.468.312L583,20.277a.917.917,0,0,1,.843-.5.782.782,0,0,1,.843.749c0,.812-1.155.968-1.155,1.436h1.186v.406h-1.686A1.209,1.209,0,0,1,583,22.087Zm1.967-.718,1.093-1.623h.562v1.5h.343v.375h-.343v.656h-.468v-.656h-1.186v-.25Zm1.186-.094V20.5a1.724,1.724,0,0,1,.031-.281h0a2.423,2.423,0,0,1-.125.219l-.593.812h0l.687.031Zm2.248-.156-.094.312a3.513,3.513,0,0,1-4.183,2.5,3.475,3.475,0,0,1-2.591-3.871l.531.156a.167.167,0,0,0,.218-.187l-.562-2.248a.164.164,0,0,0-.281-.062L579.78,19.34a.164.164,0,0,0,.063.281l.562.156a4.586,4.586,0,0,0,3.371,5.276,4.684,4.684,0,0,0,5.619-3.309l.094-.312a.177.177,0,0,0-.125-.219l-.78-.219A.194.194,0,0,0,588.4,21.12Zm.937-1.374-.843.094a.175.175,0,0,0-.156.187l.031.25a.175.175,0,0,0,.187.156l.843-.094a.175.175,0,0,0,.156-.187l-.031-.25A.143.143,0,0,0,589.332,19.746Zm-.624-1.592-.718.406c-.094.031-.094.156-.062.219l.125.219c.031.094.156.094.219.062l.718-.406c.094-.031.094-.156.062-.219l-.125-.219A.207.207,0,0,0,588.708,18.154Zm-1.186-1.217-.531.656a.151.151,0,0,0,.031.219l.187.156a.151.151,0,0,0,.219-.031l.531-.656a.151.151,0,0,0-.031-.219l-.187-.156A.192.192,0,0,0,587.522,16.937Zm-1.561-.687-.25.812a.178.178,0,0,0,.125.219l.25.062a.178.178,0,0,0,.219-.125l.25-.812a.178.178,0,0,0-.125-.219l-.25-.062A.209.209,0,0,0,585.961,16.25Zm-1.686-.031.094.843a.175.175,0,0,0,.187.156l.25-.031a.175.175,0,0,0,.156-.187l-.094-.843a.175.175,0,0,0-.187-.156l-.25.031A.143.143,0,0,0,584.275,16.219Zm-1.623.562.375.749a.138.138,0,0,0,.219.062l.219-.125a.138.138,0,0,0,.063-.219l-.375-.749a.138.138,0,0,0-.218-.062l-.219.125A.193.193,0,0,0,582.652,16.78Z" transform="translate(-549.437 -14.189)"/>
        </g>
        <g id="group-5" data-name="group" transform="translate(0.905)">
          <g id="group-6" data-name="group">
            <g id="group-7" data-name="group" transform="translate(5.557 13.267)">
              <path id="path-37" data-name="path" class="cls-2" d="M535.081,49.9H537.3v.905a.213.213,0,0,0,.218.219h.468a.213.213,0,0,0,.219-.219V49.9h2.216a.313.313,0,0,1,.312.312v4.714a.313.313,0,0,1-.312.312h-5.307a.313.313,0,0,1-.312-.312V50.212A.308.308,0,0,1,535.081,49.9Z" transform="translate(-524.998 -49.9)"/>
              <g id="group-8" data-name="group" transform="translate(8.522 0.968)">
                <g id="group-9" data-name="group" transform="translate(2.217 9.708)">
                  <g id="group-10" data-name="group">
                    <path id="path-38" data-name="path" class="cls-2" d="M537.8,86.535a2.435,2.435,0,1,1,2.435,2.435A2.438,2.438,0,0,1,537.8,86.535Zm1.217,0a1.217,1.217,0,1,0,1.217-1.217A1.239,1.239,0,0,0,539.017,86.535Z" transform="translate(-537.8 -84.1)"/>
                  </g>
                  <g id="group-11" data-name="group" transform="translate(13.486)">
                    <path id="path-39" data-name="path" class="cls-2" d="M581,86.535a2.435,2.435,0,1,1,2.435,2.435A2.438,2.438,0,0,1,581,86.535Zm1.217,0a1.217,1.217,0,1,0,1.218-1.217A1.239,1.239,0,0,0,582.217,86.535Z" transform="translate(-581 -84.1)"/>
                  </g>
                </g>
                <path id="path-40" data-name="path" class="cls-2" d="M534.2,60.4v-.656H532.51a.693.693,0,0,1-.687-.687v-.5a.693.693,0,0,1,.687-.687H541a.693.693,0,0,1,.687.687v.5a.693.693,0,0,1-.687.687h-.937V62.4h4.714a4.885,4.885,0,0,1,1.311-1.342l-1.873-6.68H542.5a.687.687,0,0,1,0-1.374h2.435a.924.924,0,0,1,.312.062,1.011,1.011,0,0,1,.281.25l4.932,7.367a.905.905,0,0,1,.187.718.762.762,0,0,1-1,.375,3.25,3.25,0,0,0-4.245,3.122.693.693,0,0,1-.687.687h-5.4a.693.693,0,0,1-.687-.687,3.278,3.278,0,1,0-6.555,0,.687.687,0,0,1-1.374,0A4.613,4.613,0,0,1,534.2,60.4Z" transform="translate(-530.698 -53)"/>
              </g>
              <path id="path-41" data-name="path" class="cls-2" d="M510.58,81.218a.726.726,0,0,1-.718.718h-5.744a.718.718,0,0,1,0-1.436h5.744A.706.706,0,0,1,510.58,81.218Z" transform="translate(-503.4 -70.948)"/>
              <path id="path-42" data-name="path" class="cls-2" d="M515.975,72.218a.726.726,0,0,1-.718.718h-4.339a.718.718,0,0,1,0-1.436h4.339A.706.706,0,0,1,515.975,72.218Z" transform="translate(-508.077 -64.757)"/>
              <path id="path-43" data-name="path" class="cls-2" d="M520.652,63.836h-2.934a.718.718,0,1,1,0-1.436h2.934a.726.726,0,0,1,.718.718A.748.748,0,0,1,520.652,63.836Z" transform="translate(-512.755 -58.498)"/>
            </g>
            <g id="group-12" data-name="group" transform="translate(20.728)">
              <path id="path-44" data-name="path" class="cls-2" d="M562.539,18.638c-.094-.031-.375-.094-.281-.531a3.716,3.716,0,0,0,.062-.968c-.031-.312-.062-5.182-.062-5.4s-.062-.531.593-1.436c.281-.375.187-.531.219-.937.031-.25.031-1.061.031-1.28h0c-.031-.062-.062-.281,0-.343h0V7.525a.134.134,0,0,1,.125-.125h.812a.131.131,0,0,1,.125.125v.219h0a.338.338,0,0,1,0,.343h0c0,.219,0,1.03.031,1.28a1.443,1.443,0,0,0,.219.937,2.185,2.185,0,0,1,.593,1.436c0,.219-.031,5.12-.062,5.4a2.713,2.713,0,0,0,.062.968c.094.468-.187.531-.281.531Z" transform="translate(-559.043 -7.4)"/>
              <path id="path-45" data-name="path" class="cls-2" d="M553.436,32.11c.656-.094,1.124-.749,1.124-2.31H552c0,1.53.5,2.216,1.124,2.31v1.717h-.656v.187h1.623v-.187h-.656V32.11Z" transform="translate(-552 -22.807)"/>
            </g>
            <g id="group-13" data-name="group" transform="translate(9.331 0.428)">
              <path id="path-46" data-name="path" class="cls-2" d="M534.154,10.627a1.4,1.4,0,0,0-1.655.593l2.56.905A1.373,1.373,0,0,0,534.154,10.627Z" transform="translate(-527.19 -9.994)"/>
              <path id="path-47" data-name="path" class="cls-2" d="M532.872,15.8a1.4,1.4,0,0,0,1.654-.593l-2.56-.905A1.341,1.341,0,0,0,532.872,15.8Z" transform="translate(-526.813 -12.574)"/>
              <path id="path-48" data-name="path" class="cls-2" d="M526.706,9a.8.8,0,0,0-1-.094.844.844,0,0,0-.312.968Z" transform="translate(-522.27 -8.772)"/>
              <path id="path-49" data-name="path" class="cls-2" d="M527.2,11.268a.844.844,0,0,0,.312-.968l-1.311.874A.757.757,0,0,0,527.2,11.268Z" transform="translate(-522.857 -9.823)"/>
              <path id="path-50" data-name="path" class="cls-2" d="M523.891,14.559a1.029,1.029,0,0,0-1.4-.219l-1.717,1.28-.094.094a1.463,1.463,0,0,0-.281-.687l-2.029-2.778a1.586,1.586,0,1,0-2.56,1.873l2.029,2.778a1.6,1.6,0,0,0,2.248.343,1.333,1.333,0,0,0,.406-.437.785.785,0,0,0,.125.219,1.034,1.034,0,0,0,1.4.219l1.717-1.28A1.024,1.024,0,0,0,523.891,14.559Zm-5.588,2-2.029-2.778a.991.991,0,0,1,.219-1.374l3.184,4.37A.991.991,0,0,1,518.3,16.557Zm2.591.219a.639.639,0,0,1,.125-.874l1.717-1.28a.639.639,0,0,1,.874.125Z" transform="translate(-515.49 -10.711)"/>
            </g>
            <g id="group-14" data-name="group" transform="translate(0 5.151)">
              <path id="path-51" data-name="path" class="cls-2" d="M488.1,35.53a3.472,3.472,0,0,0,.406,1.623l2.716-1.561L488.443,34A3.547,3.547,0,0,0,488.1,35.53Zm.843.843-.281.094c-.031,0-.156.031-.156-.031-.031-.062.094-.094.125-.125.062-.031.125-.031.187-.062a.2.2,0,0,1,.187,0C489.068,36.31,488.974,36.372,488.943,36.372Zm1.186-1.061a.241.241,0,0,1,.25.219.223.223,0,0,1-.25.219.213.213,0,0,1-.219-.219A.235.235,0,0,1,490.129,35.311Zm-.656.375a.343.343,0,1,1-.343-.343A.312.312,0,0,1,489.474,35.686Zm-.687-1.217a.241.241,0,0,1,.25.219.223.223,0,0,1-.25.219.213.213,0,0,1-.219-.219C488.537,34.562,488.662,34.468,488.787,34.468Zm-.437,1c-.187,0,.031-.156.125-.156C488.662,35.311,488.443,35.467,488.35,35.467Z" transform="translate(-487.32 -30.847)"/>
              <path id="path-52" data-name="path" class="cls-2" d="M490.965,25.924V25.3a4.33,4.33,0,0,0-3.465,2l.531.312A3.735,3.735,0,0,1,490.965,25.924Z" transform="translate(-486.907 -24.863)"/>
              <path id="path-53" data-name="path" class="cls-2" d="M503.434,26.21l.531-.312a4.208,4.208,0,0,0-3.465-2v.624A3.565,3.565,0,0,1,503.434,26.21Z" transform="translate(-495.849 -23.9)"/>
              <path id="path-54" data-name="path" class="cls-2" d="M503,45.512l-.531-.312a3.722,3.722,0,0,1-2.872,1.654v.624A4.189,4.189,0,0,0,503,45.512Z" transform="translate(-495.23 -38.551)"/>
              <path id="path-55" data-name="path" class="cls-2" d="M509.331,33.012a3.7,3.7,0,0,1,.406,1.654,3.6,3.6,0,0,1-.437,1.717l.531.312a4.337,4.337,0,0,0,.5-2.029,4.563,4.563,0,0,0-.468-1.967Z" transform="translate(-501.902 -29.953)"/>
              <path id="path-56" data-name="path" class="cls-2" d="M486.63,36.284a3.508,3.508,0,0,1-.437-1.717,3.7,3.7,0,0,1,.406-1.654l-.531-.312a4.157,4.157,0,0,0-.468,1.967,4.533,4.533,0,0,0,.5,2.029Z" transform="translate(-485.6 -29.884)"/>
              <path id="path-57" data-name="path" class="cls-2" d="M491.1,47.479v-.624a3.591,3.591,0,0,1-2.872-1.654l-.531.312A4.189,4.189,0,0,0,491.1,47.479Z" transform="translate(-487.044 -38.551)"/>
              <path id="path-58" data-name="path" class="cls-2" d="M492.478,27.9a3.472,3.472,0,0,0-2.778,1.623l2.778,1.592Zm-1.717,1.717a.343.343,0,1,1,.343-.343A.328.328,0,0,1,490.761,29.617Zm1.061.656a.219.219,0,0,1,0-.437.241.241,0,0,1,.25.219A.3.3,0,0,1,491.823,30.272Zm0-.874a.172.172,0,0,0-.156-.094c-.062-.031-.094-.094-.031-.125a.263.263,0,0,1,.219-.062.68.68,0,0,1,.25.156C492.166,29.367,491.885,29.492,491.823,29.4Zm.094-.562a.219.219,0,1,1,0-.437.241.241,0,0,1,.25.219A.223.223,0,0,1,491.916,28.837Z" transform="translate(-488.42 -26.651)"/>
              <path id="path-59" data-name="path" class="cls-2" d="M503.153,35.461a3.294,3.294,0,0,0-.375-1.561L500,35.492l2.716,1.561A2.716,2.716,0,0,0,503.153,35.461Zm-.468-1c.187,0-.031.125-.125.125C502.372,34.618,502.591,34.462,502.685,34.462Zm-1.436,1.28a.223.223,0,0,1-.218-.25.213.213,0,0,1,.218-.219.241.241,0,0,1,.25.219C501.467,35.648,501.374,35.742,501.249,35.742Zm.624-.468c.156,0-.125.125-.187.125C501.53,35.4,501.811,35.274,501.873,35.274Zm-.125.749c-.187,0,0-.187.125-.187C502.06,35.867,501.873,36.023,501.748,36.023Zm.624.593a.246.246,0,0,1-.25-.25.223.223,0,0,1,.25-.219.241.241,0,0,1,.25.219C502.591,36.522,502.5,36.616,502.372,36.616Zm.094-.905a.343.343,0,1,1,.343-.343A.312.312,0,0,1,502.466,35.711Z" transform="translate(-495.505 -30.778)"/>
              <path id="path-60" data-name="path" class="cls-2" d="M492.616,43.022V39.9L489.9,41.461A3.346,3.346,0,0,0,492.616,43.022Zm-.5-.25c-.187,0,.031-.156.125-.156C492.429,42.616,492.21,42.772,492.116,42.772Zm-.062-2.029a.241.241,0,0,1,.25.219.223.223,0,0,1-.25.219.213.213,0,0,1-.219-.219A.235.235,0,0,1,492.054,40.743Zm-.593.562c.187,0,0,.187-.125.187C491.149,41.492,491.336,41.3,491.461,41.3Zm.156.312a.343.343,0,1,1-.343.343A.312.312,0,0,1,491.617,41.617Zm-1-.281a.241.241,0,0,1,.25.219.223.223,0,0,1-.25.219.213.213,0,0,1-.219-.219C490.368,41.43,490.493,41.336,490.618,41.336Z" transform="translate(-488.558 -34.905)"/>
              <path id="path-61" data-name="path" class="cls-2" d="M502.316,41.561,499.6,40v3.122A3.559,3.559,0,0,0,502.316,41.561ZM500.1,42.622a.213.213,0,0,1-.219-.219.241.241,0,0,1,.219-.25.246.246,0,0,1,.25.25A.268.268,0,0,1,500.1,42.622Zm.156-.968a.343.343,0,1,1,.343-.343A.346.346,0,0,1,500.256,41.654Zm.343.5c-.156,0,.125-.125.187-.125C500.942,42.029,500.661,42.154,500.6,42.154Zm.905-.25a.241.241,0,0,1-.25-.219.25.25,0,0,1,.5,0A.265.265,0,0,1,501.5,41.9Z" transform="translate(-495.23 -34.974)"/>
              <path id="path-62" data-name="path" class="cls-2" d="M500.6,26.4v3.215l2.778-1.592A3.519,3.519,0,0,0,500.6,26.4Zm.905.468a.241.241,0,0,1,.25.219.223.223,0,0,1-.25.219.213.213,0,0,1-.219-.219C501.256,26.962,501.349,26.868,501.505,26.868Zm-.531-.219c.187,0,.031.187-.125.187C500.662,26.837,500.85,26.65,500.975,26.65Zm.156,2.185a.343.343,0,1,1,.343-.343A.312.312,0,0,1,501.131,28.835Zm.375-1.061c-.062.031-.156.062-.219,0a.579.579,0,0,0-.219-.062c-.062,0-.125-.062-.094-.125a.223.223,0,0,1,.187-.094,1.118,1.118,0,0,1,.343.125A.1.1,0,0,1,501.505,27.774Zm.187.562c-.187,0-.031-.187.094-.187C502,28.148,501.817,28.335,501.693,28.335Zm.5-.312a.241.241,0,0,1-.25-.219.223.223,0,0,1,.25-.219.22.22,0,1,1,0,.437Zm.406-.125c-.156,0,.125-.125.187-.125C502.941,27.774,502.66,27.9,502.6,27.9Z" transform="translate(-495.917 -25.62)"/>
            </g>
            <g id="group-15" data-name="group" transform="translate(30.257 1.779)">
              <path id="path-63" data-name="path" class="cls-2" d="M585.8,19.187c0-.905,1.186-1.061,1.186-1.561a.353.353,0,0,0-.375-.343.577.577,0,0,0-.468.312l-.343-.219a.917.917,0,0,1,.843-.5.782.782,0,0,1,.843.749c0,.812-1.155.968-1.155,1.436h1.186v.406h-1.686A.962.962,0,0,1,585.8,19.187Zm1.967-.718,1.093-1.623h.562v1.53h.343v.375h-.343v.656h-.468V18.75h-1.186v-.281Zm1.186-.094V17.6a1.724,1.724,0,0,1,.031-.281h0a2.406,2.406,0,0,1-.125.219l-.593.812h0l.687.031Zm2.248-.125-.094.312a3.513,3.513,0,0,1-4.183,2.5,3.475,3.475,0,0,1-2.591-3.871l.531.156a.167.167,0,0,0,.219-.187l-.562-2.248a.164.164,0,0,0-.281-.062l-1.655,1.623a.164.164,0,0,0,.063.281l.562.156a4.586,4.586,0,0,0,3.371,5.276,4.684,4.684,0,0,0,5.619-3.309l.094-.312a.178.178,0,0,0-.125-.219l-.78-.219C591.321,18.095,591.227,18.157,591.2,18.251Zm.968-1.4-.843.094a.175.175,0,0,0-.156.187l.031.25a.175.175,0,0,0,.187.156l.843-.094a.175.175,0,0,0,.156-.187l-.031-.25A.231.231,0,0,0,592.164,16.846Zm-.656-1.561-.718.406c-.094.031-.094.156-.062.219l.125.219c.031.094.156.094.219.062l.718-.406c.094-.031.094-.156.062-.219l-.125-.219C591.7,15.254,591.6,15.254,591.508,15.285Zm-1.186-1.217-.531.656a.151.151,0,0,0,.031.219l.187.156a.151.151,0,0,0,.219-.031l.531-.656a.151.151,0,0,0-.031-.219l-.187-.156A.154.154,0,0,0,590.322,14.068Zm-1.561-.687-.25.812a.177.177,0,0,0,.125.219l.25.062a.178.178,0,0,0,.219-.125l.25-.812a.177.177,0,0,0-.125-.219l-.25-.062A.209.209,0,0,0,588.761,13.381Zm-1.686-.062.094.843a.175.175,0,0,0,.187.156l.25-.031a.175.175,0,0,0,.156-.187l-.094-.843a.175.175,0,0,0-.187-.156l-.25.031A.2.2,0,0,0,587.075,13.319Zm-1.592.593.375.749a.138.138,0,0,0,.219.062l.219-.125a.138.138,0,0,0,.063-.219l-.375-.749a.138.138,0,0,0-.218-.062l-.219.125A.134.134,0,0,0,585.483,13.912Z" transform="translate(-582.526 -13.1)"/>
            </g>
          </g>
        </g>
      </g>
    </g>
  </g>
</svg>
