<svg xmlns="http://www.w3.org/2000/svg" viewBox="-1290 -2785.104 45.304 45.304">
  <defs>
    <style>
      .cls-1 {
        fill: #3d75ba;
      }

      .cls-2 {
        fill: #fff;
      }

      .cls-3 {
        opacity: 0.29;
      }
    </style>
  </defs>
  <g id="group-81" transform="translate(-1290 -2785.104)">
    <path id="path" class="cls-1" d="M39.5,45.3H5.8A5.833,5.833,0,0,1,0,39.5V5.8A5.833,5.833,0,0,1,5.8,0H39.5a5.833,5.833,0,0,1,5.8,5.8V39.5A5.833,5.833,0,0,1,39.5,45.3Z"/>
    <g id="group" transform="translate(10 34.166)">
      <path id="path-2" data-name="path" class="cls-2" d="M31.968,112.745v-1.591c0-.842.062-1.654,1.123-1.654a2.217,2.217,0,0,1,.624.125v.967a.764.764,0,0,0-.374-.125c-.468,0-.437.468-.437.78v1.466h.749v.718H32.9v4.181h-.936v-4.181H31.5v-.718h.468Z" transform="translate(-31.5 -109.5)"/>
      <path id="path-3" data-name="path" class="cls-2" d="M41.59,124.037h0c-.218.437-.406.718-.936.718-1.123,0-1.154-1.81-1.154-2.59,0-.811.031-2.465,1.186-2.465a.909.909,0,0,1,.874.624h.031v-.53h.9v4.9h-.9Zm.031-1.81c0-.374.031-1.716-.562-1.716-.686,0-.593,1.31-.593,1.716s-.062,1.716.593,1.716C41.653,123.943,41.622,122.6,41.622,122.227Z" transform="translate(-37.004 -116.517)"/>
      <path id="path-4" data-name="path" class="cls-2" d="M51.936,119.9l.655,3.713h.031l.031-.281.374-2,.312-1.435h.874l-1.279,4.9h-.593L51,119.9Z" transform="translate(-44.916 -116.655)"/>
      <path id="path-5" data-name="path" class="cls-2" d="M62.5,122.159c0-1.061.156-2.559,1.56-2.559s1.56,1.466,1.56,2.559c0,1.03-.156,2.527-1.56,2.527S62.5,123.188,62.5,122.159Zm2.153,0c0-.374.094-1.716-.624-1.716-.686,0-.624,1.31-.624,1.716,0,.343-.094,1.685.624,1.685S64.653,122.533,64.653,122.159Z" transform="translate(-52.828 -116.449)"/>
      <path id="path-6" data-name="path" class="cls-2" d="M75.536,120.286h0A1.122,1.122,0,0,1,76.6,119.6v.9h-.156c-.686,0-.9.374-.9,1v3.089H74.6v-4.9h.9v.593Z" transform="translate(-61.152 -116.449)"/>
      <path id="path-7" data-name="path" class="cls-2" d="M82.6,113.793a.6.6,0,0,1,.624-.593.614.614,0,0,1,.593.593.62.62,0,0,1-.593.624A.607.607,0,0,1,82.6,113.793Zm1.061,6.4h-.936v-4.9h.936Z" transform="translate(-66.656 -112.046)"/>
      <path id="path-8" data-name="path" class="cls-2" d="M89.1,115.5v1.4h.5v.718h-.5V121.8h-.9v-4.181h-.5V116.9h.5v-1.4Z" transform="translate(-70.165 -113.628)"/>
      <path id="path-9" data-name="path" class="cls-2" d="M95.1,122.159c0-1.061.156-2.559,1.56-2.559s1.56,1.466,1.56,2.559c0,1.03-.156,2.527-1.56,2.527C95.225,124.686,95.1,123.188,95.1,122.159Zm2.153,0c0-.374.094-1.716-.624-1.716-.686,0-.624,1.31-.624,1.716,0,.343-.094,1.685.624,1.685S97.253,122.533,97.253,122.159Z" transform="translate(-75.256 -116.449)"/>
      <path id="path-10" data-name="path" class="cls-2" d="M108.453,120.83a1.16,1.16,0,0,0-.686-.25.552.552,0,0,0-.624.53c.031.811,1.529.874,1.529,2.278a1.344,1.344,0,0,1-1.4,1.466,1.512,1.512,0,0,1-.811-.218v-.9a1.09,1.09,0,0,0,.749.312.574.574,0,0,0,.624-.624c0-.874-1.529-.936-1.529-2.278a1.27,1.27,0,0,1,1.31-1.342,1.441,1.441,0,0,1,.811.218v.811Z" transform="translate(-82.961 -116.586)"/>
    </g>
    <g id="group-2" data-name="group" transform="translate(8.549 6.646)">
      <g id="group-3" data-name="group" class="cls-3" transform="translate(0 0.905)">
        <path id="path-11" data-name="path" d="M53.859,31.345a7.132,7.132,0,0,0-13.229-3.713,7.137,7.137,0,1,0-10.764,9.111l10.14,10.14a.9.9,0,0,0,1.31,0l10.14-10.14A7.28,7.28,0,0,0,53.859,31.345Z" transform="translate(-27.4 -24.2)"/>
      </g>
      <g id="group-4" data-name="group" transform="translate(0.874)">
        <g id="group-5" data-name="group">
          <g id="Icons_10_">
            <path id="path-12" data-name="path" class="cls-2" d="M56.659,28.445a7.132,7.132,0,0,0-13.229-3.713,7.137,7.137,0,1,0-10.765,9.111l10.109,10.14a.9.9,0,0,0,1.31,0l10.14-10.14A7.147,7.147,0,0,0,56.659,28.445Z" transform="translate(-30.2 -21.3)"/>
          </g>
        </g>
      </g>
    </g>
  </g>
</svg>
