<svg xmlns="http://www.w3.org/2000/svg" viewBox="-1352 -2851.734 45.375 45.375">
  <defs>
    <style>
      .cls-1 {
        fill: #1fa2c1;
      }

      .cls-2 {
        fill: #fff;
      }

      .cls-3 {
        opacity: 0.2;
      }

      .cls-4 {
        fill: none;
      }

      .cls-5 {
        fill: #d1dce3;
      }

      .cls-6 {
        fill: #1f97b3;
      }
    </style>
  </defs>
  <g id="group-77" transform="translate(-1501 -2851.734)">
    <g id="group-76" transform="translate(0 0)">
      <g id="group" transform="translate(148.918 0)">
        <path id="path" class="cls-1" d="M516.77,45.375H483a5.834,5.834,0,0,1-5.8-5.8V5.8A5.834,5.834,0,0,1,483,0H516.77a5.834,5.834,0,0,1,5.8,5.8V39.57A5.793,5.793,0,0,1,516.77,45.375Z" transform="translate(-477.118 0)"/>
        <path id="imóveis" class="cls-2" d="M.639-8.329h.848v4.571H.639Zm.4-1.943a.543.543,0,0,1,.4.168.548.548,0,0,1,.168.4.553.553,0,0,1-.168.406.553.553,0,0,1-.406.168A.553.553,0,0,1,.621-9.3a.557.557,0,0,1-.163-.411.543.543,0,0,1,.168-.4A.588.588,0,0,1,1.037-10.272Zm1.4,1.943H3.28v.565a1.043,1.043,0,0,1,.927-.64.851.851,0,0,1,.857.64,1.041,1.041,0,0,1,.954-.64,1,1,0,0,1,.735.254,1.015,1.015,0,0,1,.254.749v3.643H6.159V-6.765a1.638,1.638,0,0,0-.1-.693A.368.368,0,0,0,5.7-7.64a.442.442,0,0,0-.415.185,1.518,1.518,0,0,0-.106.689v3.007H4.3V-6.765a2.931,2.931,0,0,0-.024-.411A.777.777,0,0,0,4.2-7.445a.354.354,0,0,0-.15-.148.511.511,0,0,0-.23-.046.45.45,0,0,0-.415.2,1.351,1.351,0,0,0-.124.676v3.007H2.436Zm8.223,2.323q0,2.318-1.435,2.318T7.789-6.041Q7.789-8.4,9.22-8.4a1.375,1.375,0,0,1,.643.141,1.129,1.129,0,0,1,.448.437,2.294,2.294,0,0,1,.263.746A5.8,5.8,0,0,1,10.659-6.006Zm-.874-.022a4.468,4.468,0,0,0-.119-1.254.439.439,0,0,0-.424-.358.449.449,0,0,0-.428.353,4.355,4.355,0,0,0-.119,1.232,4.3,4.3,0,0,0,.119,1.228.449.449,0,0,0,.428.353.434.434,0,0,0,.42-.349A3.919,3.919,0,0,0,9.785-6.028Zm.4-4.2-.9,1.219-.455-.261.746-1.347Zm.768,1.9h.905l.331,1.448q.1.442.172.934t.115,1.075A1.552,1.552,0,0,0,12.5-5.03l.1-.68q.057-.389.225-1.17l.3-1.448h.817L12.757-3.758h-.57ZM16.175-5.3h.786q-.093,1.612-1.325,1.612a1.346,1.346,0,0,1-.629-.137,1.1,1.1,0,0,1-.435-.424,2.188,2.188,0,0,1-.254-.729,5.86,5.86,0,0,1-.082-1.051,3.687,3.687,0,0,1,.338-1.793A1.124,1.124,0,0,1,15.618-8.4q1.373,0,1.373,2.42v.106h-1.93q0,1.466.583,1.466Q16.175-4.412,16.175-5.3Zm-.044-1.188a3.083,3.083,0,0,0-.163-.945.385.385,0,0,0-.371-.252.38.38,0,0,0-.371.252,3.083,3.083,0,0,0-.163.945Zm1.612-1.842h.848v4.571h-.848Zm.4-1.943a.543.543,0,0,1,.4.168.548.548,0,0,1,.168.4.553.553,0,0,1-.168.406.553.553,0,0,1-.406.168.553.553,0,0,1-.406-.168.557.557,0,0,1-.163-.411.543.543,0,0,1,.168-.4A.588.588,0,0,1,18.14-10.272Zm3.166,2.036v.79a1.072,1.072,0,0,0-.649-.23.555.555,0,0,0-.212.04.55.55,0,0,0-.17.108.5.5,0,0,0-.115.163.492.492,0,0,0-.042.2q0,.327.592.777a4.3,4.3,0,0,1,.4.344,1.574,1.574,0,0,1,.243.3,1.313,1.313,0,0,1,.172.7,1.359,1.359,0,0,1-.358.985,1.257,1.257,0,0,1-.949.367,1.478,1.478,0,0,1-.742-.216v-.817a1.178,1.178,0,0,0,.693.274.507.507,0,0,0,.579-.57.632.632,0,0,0-.106-.367,1,1,0,0,0-.155-.174q-.106-.1-.261-.223a3.44,3.44,0,0,1-.724-.7,1.281,1.281,0,0,1-.185-.7,1.252,1.252,0,0,1,.34-.905,1.2,1.2,0,0,1,.9-.349A1.566,1.566,0,0,1,21.306-8.236Z" transform="translate(11.623 46.162)"/>
        <g id="group-2" data-name="group" transform="translate(2.715 3.651)">
          <g id="group-3" data-name="group" transform="translate(21.579 2.933)">
            <g id="group-4" data-name="group" class="cls-3" transform="translate(0 0.874)">
              <path id="path-2" data-name="path" d="M567.328,30.048H555.376a.34.34,0,0,1-.218-.593l5.867-5.461a.339.339,0,0,1,.468,0l6.085,5.461A.348.348,0,0,1,567.328,30.048Z" transform="translate(-555.048 -23.9)"/>
              <path id="path-3" data-name="path" d="M567.722,45.3H556.706a.413.413,0,0,0-.406.406v6.46a.413.413,0,0,0,.406.406h3.963V49.638a1.665,1.665,0,0,1,1.654-1.654h.125a1.665,1.665,0,0,1,1.654,1.654v2.933h3.62a.413.413,0,0,0,.406-.406v-6.46A.413.413,0,0,0,567.722,45.3Z" transform="translate(-555.909 -38.622)"/>
            </g>
            <g id="group-5" data-name="group" transform="translate(0.905)">
              <g id="group-6" data-name="group">
                <path id="path-4" data-name="path" class="cls-2" d="M570.228,27.248H558.276a.34.34,0,0,1-.218-.593l5.836-5.461a.339.339,0,0,1,.468,0l6.085,5.461A.34.34,0,0,1,570.228,27.248Z" transform="translate(-557.948 -21.1)"/>
                <path id="path-5" data-name="path" class="cls-2" d="M570.622,42.4H559.606a.413.413,0,0,0-.406.406v6.46a.413.413,0,0,0,.406.406h3.963V46.738a1.665,1.665,0,0,1,1.654-1.654h.125A1.665,1.665,0,0,1,567,46.738v2.933h3.62a.413.413,0,0,0,.406-.406v-6.46A.413.413,0,0,0,570.622,42.4Z" transform="translate(-558.809 -35.753)"/>
              </g>
            </g>
          </g>
          <g id="_x37_80-building-selected_x40_2x.png_1_" transform="translate(9.3)">
            <g id="group-7" data-name="group" class="cls-3" transform="translate(0 0.874)">
              <path id="path-6" data-name="path" d="M528.526,14.5H516.293a.593.593,0,0,0-.593.593V30.259a.593.593,0,0,0,.593.593h4.65V25.017h2.9v5.836h4.65a.593.593,0,0,0,.593-.593V15.124A.6.6,0,0,0,528.526,14.5ZM520.35,27.326h-2.9V24.985h2.9Zm0-2.9h-2.9V22.083h2.9Zm0-2.9h-2.9V19.181h2.9Zm0-2.933h-2.9V16.248h2.9Zm3.5,5.836h-2.9V22.083h2.9Zm0-2.9h-2.9V19.181h2.9Zm0-2.933h-2.9V16.248h2.9Zm3.5,8.738h-2.9V24.985h2.9Zm0-2.9h-2.9V22.083h2.9Zm0-2.9h-2.9V19.181h2.9Zm0-2.933h-2.9V16.248h2.9Zm-7.552,1.186H518.04v1.155h1.748Zm1.748,11.047h1.748V25.578h-1.748v5.243Zm-1.748-8.145H518.04v1.155h1.748Zm0,2.9H518.04v1.155h1.748Zm6.99-5.8h-1.748v1.155h1.748Zm-3.5-2.933h-1.748V18h1.748Zm3.5,5.836h-1.748v1.155h1.748Zm0,2.9h-1.748v1.155h1.748Zm-6.99-8.738H518.04V18h1.748Zm6.99,0h-1.748V18h1.748Zm-3.5,2.933h-1.748v1.155h1.748Zm0,2.9h-1.748v1.155h1.748Z" transform="translate(-515.7 -14.5)"/>
            </g>
            <g id="group-8" data-name="group" transform="translate(0.874)">
              <g id="group-9" data-name="group">
                <g id="group-10" data-name="group">
                  <path id="path-7" data-name="path" class="cls-2" d="M531.326,11.7H519.093a.593.593,0,0,0-.593.593V27.428a.592.592,0,0,0,.593.593h4.65V22.185h2.9v5.836h4.65a.593.593,0,0,0,.593-.593V12.293A.566.566,0,0,0,531.326,11.7Zm-8.145,12.826h-2.9V22.185h2.9Zm0-2.9h-2.9V19.283h2.9Zm0-2.933h-2.9V16.35h2.9Zm0-2.9h-2.9V13.448h2.9Zm3.5,5.836h-2.9V19.283h2.9Zm0-2.933h-2.9V16.35h2.9Zm0-2.9h-2.9V13.448h2.9Zm3.5,8.738h-2.9V22.185h2.9Zm0-2.9h-2.9V19.283h2.9Zm0-2.933h-2.9V16.35h2.9Zm0-2.9h-2.9V13.448h2.9Zm-7.583,1.155H520.84V18.1h1.748Zm1.748,11.078h1.748V22.778h-1.748v5.243Zm-1.748-8.145H520.84v1.155h1.748Zm0,2.9H520.84v1.155h1.748Zm6.99-5.836h-1.748V18.1h1.748Zm-3.5-2.9h-1.748V15.2h1.748Zm3.5,5.836h-1.748v1.155h1.748Zm0,2.9h-1.748v1.155h1.748Zm-6.99-8.738H520.84V15.2h1.748Zm6.99,0h-1.748V15.2h1.748Zm-3.5,2.9h-1.748V18.1h1.748Zm0,2.933h-1.748v1.155h1.748Z" transform="translate(-518.5 -11.7)"/>
                </g>
              </g>
            </g>
          </g>
          <path id="path-8" data-name="path" class="cls-4" d="M499.112,62.455a2.389,2.389,0,0,1,1.217-2.06,5.449,5.449,0,1,0,.312,4.213A2.26,2.26,0,0,1,499.112,62.455Z" transform="translate(-488.721 -43.139)"/>
          <path id="path-9" data-name="path" class="cls-4" d="M522.449,69.3a1.547,1.547,0,0,0,.187,2.746,5.163,5.163,0,0,0,.094-1A5.538,5.538,0,0,0,522.449,69.3Z" transform="translate(-510.528 -51.325)"/>
          <path id="path-10" data-name="path" class="cls-4" d="M528.318,71.671a1.528,1.528,0,0,0,.874-1.4A1.545,1.545,0,0,0,528.1,68.8a6.387,6.387,0,0,1,.281,1.9A9.438,9.438,0,0,1,528.318,71.671Z" transform="translate(-514.931 -50.981)"/>
          <path id="path-11" data-name="path" class="cls-4" d="M489.9,62.792a5.467,5.467,0,0,0,5.461,5.461,5.545,5.545,0,0,0,3.558-1.311,7.369,7.369,0,0,1-1.592-4.587,7.2,7.2,0,0,1,1.217-4.057,5.488,5.488,0,0,0-8.644,4.494Z" transform="translate(-488.652 -43.07)"/>
          <ellipse id="ellipse" class="cls-4" cx="2.091" cy="2.091" rx="2.091" ry="2.091" transform="translate(10.641 17.226)"/>
          <path id="path-12" data-name="path" class="cls-4" d="M572.559,69.3H560.7c.062.343.094.655.125,1h11.734a.537.537,0,0,0,.5-.5A.493.493,0,0,0,572.559,69.3Z" transform="translate(-537.357 -51.325)"/>
          <path id="path-13" data-name="path" class="cls-5" d="M519.316,60.465a2.308,2.308,0,0,1,1.123-.281h.156A6.636,6.636,0,0,0,518.38,57.5a11.745,11.745,0,0,0-.78.967A5.334,5.334,0,0,1,519.316,60.465Z" transform="translate(-507.707 -43.207)"/>
          <g id="group-11" data-name="group" transform="translate(7.77 11.89)">
            <g id="group-12" data-name="group" class="cls-3" transform="translate(0 0.905)">
              <path id="path-14" data-name="path" d="M541.851,59.6l-2.528-2.091a.745.745,0,0,0-.437-.156H525.093a7.409,7.409,0,0,0-6.865-4.65,7.483,7.483,0,0,0-6.21,3.37,7.642,7.642,0,0,0-1.217,4.057,7.3,7.3,0,0,0,1.592,4.587,7.623,7.623,0,0,0,.843.9,7.38,7.38,0,0,0,4.962,1.9,7.339,7.339,0,0,0,6.865-4.619h4.525a.621.621,0,0,0,.5-.218l1.186-1.279,1.186,1.279a.736.736,0,0,0,.5.218.621.621,0,0,0,.5-.218l1.186-1.279,1.186,1.279a.736.736,0,0,0,.5.218.665.665,0,0,0,.5-.218l1.186-1.279,1.186,1.279a.621.621,0,0,0,.5.218.524.524,0,0,0,.437-.187l.062-.062,1.685-2.091A.656.656,0,0,0,541.851,59.6Zm-26.994,2.59a2.091,2.091,0,1,1,2.091-2.091A2.091,2.091,0,0,1,514.857,62.187ZM537.7,59.6a.5.5,0,0,1-.343.156H525.623a5.144,5.144,0,0,0-.125-1h11.859a.493.493,0,0,1,.5.5A.447.447,0,0,1,537.7,59.6Z" transform="translate(-510.8 -52.7)"/>
            </g>
            <g id="group-13" data-name="group" transform="translate(0.874)">
              <path id="path-15" data-name="path" class="cls-2" d="M544.651,56.7l-2.528-2.091a.746.746,0,0,0-.437-.156H527.893a7.409,7.409,0,0,0-6.865-4.65,7.483,7.483,0,0,0-6.21,3.37,7.642,7.642,0,0,0-1.217,4.057,7.3,7.3,0,0,0,1.592,4.587,7.622,7.622,0,0,0,.843.9,7.38,7.38,0,0,0,4.962,1.9A7.338,7.338,0,0,0,527.861,60h4.525a.621.621,0,0,0,.5-.218l1.186-1.279,1.186,1.279a.737.737,0,0,0,.5.218.621.621,0,0,0,.5-.218l1.186-1.279,1.186,1.279a.737.737,0,0,0,.5.218.664.664,0,0,0,.5-.218l1.186-1.279L542,59.786a.621.621,0,0,0,.5.218.524.524,0,0,0,.437-.187l.062-.062,1.685-2.091A.636.636,0,0,0,544.651,56.7Zm-26.963,2.621a2.091,2.091,0,1,1,2.091-2.091A2.091,2.091,0,0,1,517.688,59.318Zm22.843-2.59a.5.5,0,0,1-.343.156H528.454a5.144,5.144,0,0,0-.125-1h11.859a.493.493,0,0,1,.5.5A.692.692,0,0,1,540.531,56.728Z" transform="translate(-513.6 -49.8)"/>
            </g>
          </g>
          <path id="path-16" data-name="path" class="cls-6" d="M524.98,78.156a1.267,1.267,0,0,1-.593-.125c-.062.25-.125.531-.187.78a2.344,2.344,0,0,0,.811.156,2.408,2.408,0,0,0,.468-.062,4.232,4.232,0,0,0,.187-.9A1.968,1.968,0,0,1,524.98,78.156Z" transform="translate(-512.248 -57.31)"/>
          <path id="path-17" data-name="path" class="cls-6" d="M529.284,68.441A2.351,2.351,0,0,0,527.1,66.1c.125.281.218.562.312.843a1.545,1.545,0,0,1,1.092,1.467,1.582,1.582,0,0,1-.874,1.4,4.667,4.667,0,0,1-.187.9A2.313,2.313,0,0,0,529.284,68.441Z" transform="translate(-514.243 -49.124)"/>
          <path id="path-18" data-name="path" class="cls-6" d="M519.98,69.06a1.521,1.521,0,0,1,.749-1.311,7.628,7.628,0,0,0-.312-.749,2.351,2.351,0,0,0-1.217,2.06,2.3,2.3,0,0,0,1.529,2.184,3.168,3.168,0,0,0,.187-.78A1.5,1.5,0,0,1,519.98,69.06Z" transform="translate(-508.808 -49.743)"/>
          <path id="path-19" data-name="path" class="cls-5" d="M523.1,66.437a5.378,5.378,0,0,1,.312.749,1.375,1.375,0,0,1,.811-.218,2.409,2.409,0,0,1,.468.062,6.719,6.719,0,0,0-.312-.843h-.156A1.989,1.989,0,0,0,523.1,66.437Z" transform="translate(-511.491 -49.179)"/>
          <path id="path-20" data-name="path" class="cls-5" d="M491.3,54.873h0l.468-.094a.115.115,0,0,0,.094-.031,1.519,1.519,0,0,1,.374-.031h.687a1.061,1.061,0,0,1,.312.031.4.4,0,0,1,.187.031.911.911,0,0,1,.281.062,2.6,2.6,0,0,1,.468.125c.062,0,.094.031.156.031a1.3,1.3,0,0,1,.312.125c.031,0,.062.031.094.031a5.43,5.43,0,0,1,1.03.562h0a5.307,5.307,0,0,1,1.841,2.247,5.17,5.17,0,0,1,1.155-.437,6.651,6.651,0,0,0-2.715-3.089l-.374-.187a.031.031,0,0,1-.031-.031c-.125-.062-.281-.125-.406-.187-.031-.031-.094-.031-.156-.062-.125-.062-.25-.094-.375-.156a.281.281,0,0,0-.156-.031,4.563,4.563,0,0,0-.624-.156c-.094-.031-.218-.031-.312-.062-.094,0-.187-.031-.25-.031-.125,0-.25-.031-.374-.031h-.375a6.713,6.713,0,0,0-1.155,13.325h0a3.439,3.439,0,0,0,.562.062h.062c.187,0,.343.031.531.031h.312a3.6,3.6,0,0,0,.811-.094h.094A6.468,6.468,0,0,0,497.01,65.3a7.625,7.625,0,0,1-.843-.9,5.456,5.456,0,0,1-2.933,1.279h-.125c-.156,0-.312.031-.5.031a3.028,3.028,0,0,1-.531-.031c-.062,0-.125-.031-.187-.031a1.109,1.109,0,0,1-.312-.062c-.094-.031-.187-.031-.281-.062a1.991,1.991,0,0,0-.219-.062c-.094-.031-.218-.062-.312-.094a.237.237,0,0,1-.125-.062c-.125-.062-.25-.094-.374-.156-.031,0-.031-.031-.062-.031a2.578,2.578,0,0,1-.406-.218h0a4.07,4.07,0,0,1-.468-.312h0A5.451,5.451,0,0,1,487.9,57.4,5.712,5.712,0,0,1,491.3,54.873Z" transform="translate(-485.9 -40.456)"/>
          <path id="path-21" data-name="path" class="cls-5" d="M524.1,68.818a5.4,5.4,0,0,1,.281,1.748,5.163,5.163,0,0,1-.094,1,1.352,1.352,0,0,0,.593.125,1.451,1.451,0,0,0,.655-.156,9.456,9.456,0,0,0,.062-.967,6.538,6.538,0,0,0-.281-1.9,2.408,2.408,0,0,0-.468-.062A1.6,1.6,0,0,0,524.1,68.818Z" transform="translate(-512.179 -50.843)"/>
        </g>
      </g>
    </g>
  </g>
</svg>
