<svg xmlns="http://www.w3.org/2000/svg" viewBox="-1568 -2943.734 142.271 45.375">
  <defs>
    <style>
      .cls-1 {
        fill: #004563;
      }

      .cls-2 {
        fill: none;
        stroke: #004563;
        stroke-width: 4px;
      }

      .cls-3 {
        fill: #1fa2c1;
      }
    </style>
  </defs>
  <g id="group" transform="translate(-1568 -2943.734)">
    <g id="group-2" data-name="group" transform="translate(0 0.071)">
      <path id="path" class="cls-1" d="M0,44.752V1A.706.706,0,0,1,.718.282H6.772C8.332.282,27.025-2,27.025,23.219c0,12.888-4.962,22.219-19.036,22.219H.718A.663.663,0,0,1,0,44.752ZM18.1,23.188c0-5.555-1.654-14.2-8.395-14.823a.721.721,0,0,0-.78.718v27.68a.733.733,0,0,0,.749.718C16.259,37.169,18.1,28.618,18.1,23.188Z" transform="translate(0 -0.229)"/>
      <path id="path-2" data-name="path" class="cls-1" d="M119.737,1.118V8.077a.706.706,0,0,1-.718.718h-7.677a.706.706,0,0,0-.718.718v8.239a.706.706,0,0,0,.718.718h6.8a.706.706,0,0,1,.718.718v6.959a.706.706,0,0,1-.718.718h-6.8a.706.706,0,0,0-.718.718V44.932a.706.706,0,0,1-.718.718h-7.49a.706.706,0,0,1-.718-.718V1.118A.706.706,0,0,1,102.418.4h16.6A.706.706,0,0,1,119.737,1.118Z" transform="translate(-69.963 -0.347)"/>
    </g>
    <path id="path-3" data-name="path" class="cls-2" d="M356.1,134.4" transform="translate(-244.973 -92.458)"/>
    <path id="path-4" data-name="path" class="cls-1" d="M354.232,134.666a1.958,1.958,0,0,1-1.966,1.966,1.978,1.978,0,0,1-1.966-1.966,1.966,1.966,0,1,1,3.932,0Z" transform="translate(-240.983 -91.289)"/>
    <path id="path-5" data-name="path" class="cls-1" d="M372.024,120.679a3.91,3.91,0,0,1-1.685.374c-2.84,0-3.838-3-3.838-5.4,0-2.653,1.03-5.555,4.088-5.555a3.446,3.446,0,0,1,1.467.312V113a1.13,1.13,0,0,0-.843-.343c-1.435,0-1.748,1.716-1.748,2.809,0,1.123.218,2.809,1.716,2.809a1.585,1.585,0,0,0,.9-.312v2.715Z" transform="translate(-252.127 -75.741)"/>
    <path id="path-6" data-name="path" class="cls-1" d="M395.489,115.592c0,2.684-.843,5.461-3.994,5.461s-3.994-2.777-3.994-5.461.843-5.492,3.994-5.492S395.489,112.909,395.489,115.592Zm-5.055,0c0,.593.031,2.84,1.061,2.84s1.061-2.216,1.061-2.84c0-.593-.031-2.84-1.061-2.84C390.465,112.784,390.433,115,390.433,115.592Z" transform="translate(-266.574 -75.741)"/>
    <path id="path-7" data-name="path" class="cls-1" d="M420.158,112.135h.031a3.017,3.017,0,0,1,2.621-1.935,1.908,1.908,0,0,1,1.841,1.841h.031a3.1,3.1,0,0,1,2.559-1.841c1.935,0,1.935,2.153,1.935,3.526v7.427h-3v-5.8c0-.562.156-2.122-.749-2.122-.687,0-.811.718-.811,1.217v6.741h-3v-6.054c0-.531.156-1.9-.687-1.9-.749,0-.843.687-.843,1.217v6.678h-3V110.387h3Z" transform="translate(-286.937 -75.81)"/>
    <path id="path-8" data-name="path" class="cls-3" d="M193.08,28.648h-.125c-1.186,2.372-3,4.182-5.8,4.182-7.115,0-8.551-11.359-8.551-16.415,0-5.43,1.061-16.352,8.426-16.352,2.933,0,4.931,1.935,5.929,4.494h.125V0h8.8V32.829h-8.8ZM193.7,16.29c0-1.748-.187-8.426-3.183-8.426-2.933,0-3.121,6.616-3.121,8.426,0,2,.125,8.488,3.246,8.488C193.454,24.778,193.7,17.975,193.7,16.29Z" transform="translate(-122.865)"/>
    <path id="path-9" data-name="path" class="cls-3" d="M284.08,42.535h-8.8V28.648h-.125c-1.186,2.372-3,4.182-5.8,4.182-7.115,0-8.551-11.359-8.551-16.415,0-5.43,1.061-16.352,8.426-16.352,2.933,0,4.931,1.935,5.929,4.494h.125V0h8.8ZM275.9,16.29c0-1.748-.187-8.426-3.183-8.426-2.933,0-3.121,6.616-3.121,8.426,0,2,.125,8.488,3.245,8.488C275.654,24.778,275.9,17.975,275.9,16.29Z" transform="translate(-179.413)"/>
    <path id="path-10" data-name="path" class="cls-3" d="M356.3,0V17.975c0,1.748-.687,6.616,2.247,6.616,2.372,0,2.184-3.121,2.184-4.681L360.794,0h8.738V20.784c0,7.3-3.433,12.046-11.234,12.046-9.986,0-10.8-7.49-10.8-13.232V0Z" transform="translate(-239.057)"/>
    <rect id="rectangle" class="cls-3" width="8.8" height="32.829" transform="translate(133.471)"/>
  </g>
</svg>
