<svg xmlns="http://www.w3.org/2000/svg" viewBox="2363 -985.004 56.004 56.004">
  <defs>
    <style>
      .cls-1 {
        fill: #4ca22f;
      }
    </style>
  </defs>
  <g id="ok-appproval-acceptance" transform="translate(2363 -985.004)">
    <path id="Path_1" data-name="Path 1" class="cls-1" d="M36.912,18.1l3.96,3.96L25.034,37.9l-9.9-9.9,3.96-3.96,5.94,5.94ZM56,11.2V44.8A11.233,11.233,0,0,1,44.8,56H11.2A11.233,11.233,0,0,1,0,44.8V11.2A11.233,11.233,0,0,1,11.2,0H44.8A11.233,11.233,0,0,1,56,11.2ZM49,28A21,21,0,1,0,28,49,21,21,0,0,0,49,28Z"/>
  </g>
</svg>
